<svg xmlns="http://www.w3.org/2000/svg" xmlns:xlink="http://www.w3.org/1999/xlink" width="164" zoomAndPan="magnify" viewBox="0 0 123 112.499997" height="150" preserveAspectRatio="xMidYMid meet" version="1.0"><defs><g/><clipPath id="5cb5ccb7d4"><path d="M 40.007812 4.890625 L 87.796875 4.890625 L 87.796875 78.066406 L 40.007812 78.066406 Z M 40.007812 4.890625 " clip-rule="nonzero"/></clipPath></defs><g fill="#dc3c4d" fill-opacity="0.302"><g transform="translate(16.101968, 101.751386)"><g><path d="M 8.070312 -26.660156 C 8.617188 -28.652344 8.886719 -30.011719 8.890625 -30.675781 C 8.867188 -31.332031 8.621094 -31.660156 8.105469 -31.585938 C 7.78125 -31.542969 7.378906 -30.859375 6.875 -29.53125 C 6.335938 -28.199219 5.5625 -25.945312 4.597656 -22.707031 C 3.753906 -20.011719 3.019531 -17.265625 2.421875 -14.472656 C 1.757812 -11.671875 1.296875 -9.097656 1.023438 -6.8125 C 0.710938 -5.285156 0.613281 -3.851562 0.671875 -2.503906 C 0.699219 -1.121094 0.71875 -0.0664062 0.753906 0.652344 C 0.953125 2.078125 1.144531 2.746094 1.371094 2.710938 L 1.40625 2.707031 C 1.597656 2.679688 1.878906 1.847656 2.210938 0.21875 C 2.429688 -0.804688 2.582031 -1.585938 2.707031 -2.128906 L 5.550781 -3.71875 C 7.207031 -4.644531 8.65625 -5.609375 9.960938 -6.652344 C 11.203125 -7.6875 12.542969 -8.964844 13.96875 -10.550781 C 16.421875 -13.308594 18.128906 -15.957031 19.054688 -18.53125 C 19.625 -20.097656 19.835938 -21.417969 19.683594 -22.515625 C 19.585938 -23.195312 19.339844 -23.789062 18.96875 -24.300781 C 18.574219 -24.773438 18.039062 -25.058594 17.351562 -25.226562 C 16.636719 -25.390625 15.953125 -25.328125 15.257812 -25.097656 C 14.0625 -24.664062 12.765625 -23.789062 11.394531 -22.507812 C 10.027344 -21.191406 8.621094 -19.472656 7.164062 -17.386719 C 6.722656 -16.761719 6.359375 -16.285156 6.078125 -15.945312 C 5.734375 -15.566406 5.585938 -15.449219 5.566406 -15.578125 C 5.546875 -15.738281 5.621094 -16.378906 5.863281 -17.46875 C 6.105469 -18.558594 6.386719 -19.851562 6.765625 -21.394531 C 6.945312 -22.210938 7.15625 -23.066406 7.394531 -23.957031 C 7.597656 -24.84375 7.832031 -25.769531 8.070312 -26.660156 Z M 4.894531 -10.265625 C 5.402344 -11.359375 5.976562 -12.433594 6.683594 -13.523438 C 7.324219 -14.601562 8.039062 -15.628906 8.824219 -16.597656 C 10.195312 -18.375 11.597656 -19.894531 13.007812 -21.148438 C 14.359375 -22.328125 15.488281 -22.984375 16.332031 -23.101562 L 16.429688 -23.117188 C 16.691406 -23.121094 16.964844 -23.058594 17.175781 -22.957031 C 17.367188 -22.785156 17.496094 -22.574219 17.605469 -22.257812 L 17.640625 -22 C 17.714844 -21.480469 17.664062 -20.910156 17.519531 -20.296875 C 17.296875 -19.539062 16.984375 -18.703125 16.511719 -17.84375 C 15.617188 -16.199219 14.378906 -14.441406 12.730469 -12.554688 C 11.050781 -10.636719 9.183594 -8.886719 7.101562 -7.273438 C 6.207031 -6.585938 5.460938 -6.019531 4.800781 -5.53125 C 4.144531 -5.042969 3.785156 -4.792969 3.785156 -4.792969 C 3.558594 -4.761719 3.441406 -4.875 3.402344 -5.167969 C 3.363281 -5.425781 3.40625 -5.828125 3.527344 -6.375 C 3.734375 -7.492188 4.179688 -8.777344 4.894531 -10.265625 Z M 4.894531 -10.265625 "/></g></g></g><g fill="#dc3c4d" fill-opacity="0.302"><g transform="translate(36.66245, 98.858142)"><g><path d="M 12.515625 -29.335938 C 12.3125 -29.371094 12.113281 -29.378906 11.914062 -29.382812 C 11.71875 -29.355469 11.554688 -29.363281 11.359375 -29.335938 L 11.292969 -29.328125 C 10.390625 -29.167969 9.496094 -28.746094 8.574219 -28.019531 C 7.617188 -27.292969 6.644531 -26.230469 5.644531 -24.902344 C 4.21875 -23.050781 3.027344 -20.964844 2.097656 -18.65625 C 1.101562 -16.335938 0.433594 -14.0625 0.0507812 -11.828125 C -0.171875 -10.609375 -0.265625 -9.40625 -0.273438 -8.28125 C -0.308594 -7.355469 -0.25 -6.46875 -0.105469 -5.664062 L -0.015625 -5.050781 C 0.257812 -3.570312 0.609375 -2.464844 1.082031 -1.703125 C 1.550781 -0.945312 2.1875 -0.40625 2.988281 -0.125 C 3.546875 0.09375 4.117188 0.148438 4.699219 0.0664062 C 5.347656 -0.0273438 6.066406 -0.292969 6.796875 -0.757812 C 8.128906 -1.605469 9.453125 -2.980469 10.707031 -4.875 C 11.359375 -5.859375 12.027344 -6.976562 12.640625 -8.25 C 13.261719 -9.492188 13.832031 -10.828125 14.351562 -12.289062 C 15.386719 -15.273438 15.992188 -18.003906 16.238281 -20.480469 C 16.355469 -21.984375 16.335938 -23.300781 16.171875 -24.464844 C 16.070312 -25.179688 15.910156 -25.851562 15.695312 -26.445312 C 15.382812 -27.261719 14.964844 -27.894531 14.429688 -28.414062 C 13.898438 -28.902344 13.257812 -29.207031 12.515625 -29.335938 Z M 2.789062 -13.269531 C 3.160156 -14.378906 3.625 -15.535156 4.128906 -16.664062 C 4.601562 -17.753906 5.113281 -18.816406 5.664062 -19.816406 C 6.691406 -21.679688 7.730469 -23.210938 8.804688 -24.488281 C 9.886719 -25.730469 10.78125 -26.414062 11.558594 -26.523438 C 11.945312 -26.578125 12.324219 -26.46875 12.628906 -26.179688 C 12.902344 -25.890625 13.125 -25.457031 13.300781 -24.921875 C 13.378906 -24.601562 13.453125 -24.316406 13.5 -23.992188 C 13.625 -23.085938 13.617188 -21.960938 13.5 -20.691406 C 13.359375 -18.886719 12.933594 -16.976562 12.296875 -14.9375 C 11.5 -12.382812 10.539062 -10.070312 9.441406 -8 C 8.285156 -5.886719 7.203125 -4.414062 6.195312 -3.613281 C 5.480469 -3.050781 4.96875 -2.714844 4.617188 -2.632812 C 4.554688 -2.589844 4.492188 -2.582031 4.457031 -2.574219 C 4.136719 -2.53125 3.824219 -2.617188 3.523438 -2.875 C 3.230469 -3.097656 2.984375 -3.425781 2.792969 -3.859375 C 2.566406 -4.289062 2.390625 -4.828125 2.304688 -5.441406 C 2.246094 -5.632812 2.214844 -5.859375 2.175781 -6.117188 C 2.046875 -7.058594 1.996094 -8.105469 2.0625 -9.273438 C 2.125 -10.703125 2.371094 -12.023438 2.789062 -13.269531 Z M 2.789062 -13.269531 "/></g></g></g><g fill="#dc3c4d" fill-opacity="0.302"><g transform="translate(54.567877, 96.338513)"><g><path d="M 0.101562 5.402344 C 0.183594 5.523438 0.285156 5.539062 0.382812 5.527344 C 0.511719 5.507812 0.644531 5.292969 0.761719 4.945312 C 0.914062 4.394531 1.117188 3.011719 1.402344 0.824219 C 1.921875 -3.703125 2.585938 -7.894531 3.429688 -11.777344 C 4.238281 -15.65625 5.097656 -18.679688 6.015625 -20.859375 C 6.347656 -21.761719 6.664062 -22.335938 6.925781 -22.605469 C 7.15625 -22.835938 7.363281 -22.765625 7.484375 -22.386719 C 7.5 -22.257812 7.53125 -21.566406 7.566406 -20.382812 C 7.578125 -19.128906 7.574219 -17.742188 7.5625 -16.1875 C 7.507812 -12.582031 7.519531 -9.675781 7.632812 -7.480469 C 7.710938 -5.277344 7.882812 -3.585938 8.148438 -2.402344 C 8.273438 -1.757812 8.445312 -1.222656 8.667969 -0.824219 C 8.855469 -0.421875 9.0625 -0.121094 9.359375 0.101562 C 10.222656 0.839844 11.140625 0.777344 12.105469 -0.0859375 C 13.046875 -0.910156 14.011719 -2.5 14.976562 -4.816406 C 15.410156 -5.933594 16.035156 -7.605469 16.773438 -9.855469 C 17.515625 -12.105469 18.296875 -14.527344 19.125 -17.089844 C 19.898438 -19.574219 20.671875 -22.0625 21.417969 -24.511719 C 22.128906 -26.957031 22.703125 -28.984375 23.136719 -30.597656 C 23.347656 -31.453125 23.542969 -32.175781 23.664062 -32.71875 C 23.761719 -33.195312 23.816406 -33.5 23.800781 -33.628906 L 23.792969 -33.664062 C 23.703125 -33.847656 23.625 -33.9375 23.527344 -33.921875 C 23.398438 -33.902344 23.28125 -33.789062 23.136719 -33.636719 C 22.792969 -33.257812 22.289062 -32.394531 21.582031 -31.074219 C 21.242188 -30.429688 20.902344 -29.820312 20.59375 -29.183594 C 20.289062 -28.546875 19.984375 -27.875 19.6875 -27.175781 C 19.117188 -25.839844 18.535156 -24.335938 17.910156 -22.664062 C 17.296875 -20.925781 16.628906 -18.882812 15.847656 -16.460938 C 15.253906 -14.5625 14.695312 -12.898438 14.234375 -11.480469 C 13.773438 -10.0625 13.351562 -8.847656 12.996094 -7.839844 C 12.308594 -5.925781 11.796875 -4.632812 11.457031 -3.988281 C 11.085938 -3.34375 10.789062 -3.105469 10.601562 -3.273438 C 10.449219 -3.417969 10.300781 -4.71875 10.15625 -7.140625 C 10.011719 -9.566406 9.871094 -12.683594 9.800781 -16.46875 C 9.75 -18.707031 9.617188 -20.605469 9.371094 -22.121094 C 9.089844 -23.636719 8.792969 -24.582031 8.414062 -24.925781 C 8.308594 -24.976562 8.136719 -25.019531 7.867188 -25.046875 C 7.605469 -25.042969 7.378906 -25.011719 7.125 -24.945312 C 6.175781 -24.644531 5.226562 -23.15625 4.214844 -20.503906 C 3.207031 -17.820312 2.328125 -14.429688 1.589844 -10.296875 C 1.417969 -9.414062 1.261719 -8.398438 1.125 -7.257812 C 0.957031 -6.113281 0.792969 -4.933594 0.695312 -3.730469 C 0.507812 -2.25 0.375 -0.84375 0.265625 0.492188 C 0.125 1.832031 0.0507812 2.933594 0.0390625 3.792969 C 0.00390625 4.257812 -0.00390625 4.65625 0.03125 4.914062 C 0.015625 5.050781 0.03125 5.148438 0.0390625 5.210938 C 0.0585938 5.339844 0.0664062 5.40625 0.101562 5.402344 Z M 0.101562 5.402344 "/></g></g></g><g fill="#dc3c4d" fill-opacity="0.302"><g transform="translate(77.135843, 93.162779)"><g><path d="M 12.515625 -29.335938 C 12.3125 -29.371094 12.113281 -29.378906 11.914062 -29.382812 C 11.71875 -29.355469 11.554688 -29.363281 11.359375 -29.335938 L 11.292969 -29.328125 C 10.390625 -29.167969 9.496094 -28.746094 8.574219 -28.019531 C 7.617188 -27.292969 6.644531 -26.230469 5.644531 -24.902344 C 4.21875 -23.050781 3.027344 -20.964844 2.097656 -18.65625 C 1.101562 -16.335938 0.433594 -14.0625 0.0507812 -11.828125 C -0.171875 -10.609375 -0.265625 -9.40625 -0.273438 -8.28125 C -0.308594 -7.355469 -0.25 -6.46875 -0.105469 -5.664062 L -0.015625 -5.050781 C 0.257812 -3.570312 0.609375 -2.464844 1.082031 -1.703125 C 1.550781 -0.945312 2.1875 -0.40625 2.988281 -0.125 C 3.546875 0.09375 4.117188 0.148438 4.699219 0.0664062 C 5.347656 -0.0273438 6.066406 -0.292969 6.796875 -0.757812 C 8.128906 -1.605469 9.453125 -2.980469 10.707031 -4.875 C 11.359375 -5.859375 12.027344 -6.976562 12.640625 -8.25 C 13.261719 -9.492188 13.832031 -10.828125 14.351562 -12.289062 C 15.386719 -15.273438 15.992188 -18.003906 16.238281 -20.480469 C 16.355469 -21.984375 16.335938 -23.300781 16.171875 -24.464844 C 16.070312 -25.179688 15.910156 -25.851562 15.695312 -26.445312 C 15.382812 -27.261719 14.964844 -27.894531 14.429688 -28.414062 C 13.898438 -28.902344 13.257812 -29.207031 12.515625 -29.335938 Z M 2.789062 -13.269531 C 3.160156 -14.378906 3.625 -15.535156 4.128906 -16.664062 C 4.601562 -17.753906 5.113281 -18.816406 5.664062 -19.816406 C 6.691406 -21.679688 7.730469 -23.210938 8.804688 -24.488281 C 9.886719 -25.730469 10.78125 -26.414062 11.558594 -26.523438 C 11.945312 -26.578125 12.324219 -26.46875 12.628906 -26.179688 C 12.902344 -25.890625 13.125 -25.457031 13.300781 -24.921875 C 13.378906 -24.601562 13.453125 -24.316406 13.5 -23.992188 C 13.625 -23.085938 13.617188 -21.960938 13.5 -20.691406 C 13.359375 -18.886719 12.933594 -16.976562 12.296875 -14.9375 C 11.5 -12.382812 10.539062 -10.070312 9.441406 -8 C 8.285156 -5.886719 7.203125 -4.414062 6.195312 -3.613281 C 5.480469 -3.050781 4.96875 -2.714844 4.617188 -2.632812 C 4.554688 -2.589844 4.492188 -2.582031 4.457031 -2.574219 C 4.136719 -2.53125 3.824219 -2.617188 3.523438 -2.875 C 3.230469 -3.097656 2.984375 -3.425781 2.792969 -3.859375 C 2.566406 -4.289062 2.390625 -4.828125 2.304688 -5.441406 C 2.246094 -5.632812 2.214844 -5.859375 2.175781 -6.117188 C 2.046875 -7.058594 1.996094 -8.105469 2.0625 -9.273438 C 2.125 -10.703125 2.371094 -12.023438 2.789062 -13.269531 Z M 2.789062 -13.269531 "/></g></g></g><g fill="#dc3c4d" fill-opacity="0.302"><g transform="translate(95.041275, 90.643149)"><g><path d="M 8.542969 -23.292969 C 8.75 -24.644531 8.816406 -25.578125 8.804688 -26.136719 C 8.765625 -26.660156 8.597656 -26.902344 8.304688 -26.859375 L 8.273438 -26.855469 L 8.175781 -26.84375 C 7.925781 -26.742188 7.46875 -25.785156 6.796875 -23.972656 C 6.128906 -22.160156 5.441406 -19.984375 4.738281 -17.476562 C 4.339844 -16.097656 3.9375 -14.722656 3.578125 -13.285156 C 3.1875 -11.839844 2.855469 -10.441406 2.554688 -9.078125 C 2.515625 -8.875 2.351562 -8.621094 2.066406 -8.316406 C 1.785156 -7.976562 1.460938 -7.703125 1.128906 -7.457031 C 0.773438 -7.175781 0.417969 -6.894531 0.0664062 -6.582031 C -0.316406 -6.230469 -0.574219 -5.960938 -0.746094 -5.773438 C -1.023438 -5.402344 -1.21875 -5.144531 -1.363281 -4.992188 C -0.632812 -5.195312 -0.0585938 -5.339844 0.320312 -5.460938 C 1.050781 -5.664062 1.59375 -5.804688 1.972656 -5.925781 C 1.96875 -5.496094 1.949219 -5.160156 1.976562 -4.96875 C 1.949219 -4.699219 1.941406 -4.269531 1.921875 -3.703125 C 1.875 -3.105469 1.851562 -2.570312 1.859375 -2.042969 C 1.800781 -1.507812 1.820312 -0.917969 1.839844 -0.292969 C 1.867188 0.363281 1.902344 0.855469 1.953125 1.210938 C 2.035156 1.792969 2.113281 2.113281 2.1875 2.167969 C 2.238281 2.292969 2.324219 2.214844 2.492188 1.992188 C 2.632812 1.808594 2.894531 1.078125 3.238281 -0.222656 C 3.585938 -1.496094 4.1875 -3.792969 5.042969 -7.117188 C 5.078125 -7.320312 5.273438 -7.578125 5.558594 -7.914062 C 5.839844 -8.25 6.21875 -8.601562 6.628906 -8.988281 C 7.242188 -9.539062 7.898438 -10.058594 8.554688 -10.550781 C 9.179688 -11.035156 9.609375 -11.257812 9.847656 -11.226562 C 10.125 -11.132812 10.546875 -10.699219 11.121094 -9.917969 C 11.699219 -9.078125 12.476562 -7.796875 13.445312 -6.054688 C 14.4375 -4.179688 15.300781 -2.746094 16.027344 -1.792969 C 16.691406 -0.828125 17.429688 -0.0429688 18.199219 0.511719 C 18.6875 0.902344 19.007812 1.089844 19.203125 1.0625 C 19.269531 1.054688 19.300781 1.046875 19.324219 0.980469 C 19.425781 0.765625 19.222656 0.265625 18.773438 -0.59375 C 18.566406 -0.894531 18.257812 -1.445312 17.875 -2.285156 C 17.429688 -3.082031 17.050781 -3.917969 16.664062 -4.789062 C 15.824219 -6.519531 15.105469 -7.871094 14.503906 -8.875 C 13.902344 -9.847656 13.222656 -10.710938 12.484375 -11.5 C 12.179688 -11.785156 11.941406 -12.050781 11.773438 -12.324219 C 11.542969 -12.554688 11.449219 -12.738281 11.441406 -12.804688 C 11.429688 -12.871094 11.625 -13.128906 12.058594 -13.585938 C 12.488281 -14.042969 13.007812 -14.578125 13.613281 -15.191406 C 16.425781 -17.964844 18.359375 -20.414062 19.441406 -22.582031 C 20.058594 -23.824219 20.3125 -24.851562 20.203125 -25.628906 C 20.125 -26.179688 19.835938 -26.601562 19.363281 -26.898438 C 18.566406 -27.414062 17.390625 -27.3125 15.871094 -26.605469 C 14.324219 -25.859375 12.617188 -24.625 10.753906 -22.84375 C 10.113281 -22.226562 9.585938 -21.757812 9.113281 -21.359375 C 8.640625 -20.964844 8.371094 -20.761719 8.332031 -20.820312 C 8.265625 -20.8125 8.261719 -21.074219 8.324219 -21.578125 C 8.355469 -22.046875 8.441406 -22.621094 8.542969 -23.292969 Z M 11.703125 -21.722656 C 12.816406 -22.738281 13.882812 -23.617188 14.941406 -24.292969 C 15.96875 -24.964844 16.835938 -25.386719 17.472656 -25.542969 L 17.636719 -25.5625 C 17.832031 -25.589844 18.027344 -25.585938 18.199219 -25.542969 C 18.34375 -25.464844 18.464844 -25.316406 18.523438 -25.128906 C 18.609375 -24.511719 17.976562 -23.367188 16.664062 -21.664062 C 15.320312 -19.953125 13.546875 -18.019531 11.308594 -15.855469 C 10.699219 -15.242188 10.148438 -14.703125 9.644531 -14.300781 C 9.175781 -13.871094 8.875 -13.664062 8.746094 -13.648438 L 8.714844 -13.640625 C 7.875 -13.722656 7.316406 -13.710938 7.011719 -13.535156 C 6.707031 -13.359375 6.511719 -13.332031 6.484375 -13.527344 L 6.480469 -13.558594 C 6.457031 -13.722656 6.484375 -13.988281 6.597656 -14.367188 C 6.714844 -14.714844 6.800781 -15.023438 6.867188 -15.265625 C 7.113281 -16.09375 7.671875 -17.0625 8.5 -18.203125 C 9.335938 -19.3125 10.394531 -20.484375 11.703125 -21.722656 Z M 11.703125 -21.722656 "/></g></g></g><g fill="#dc3c4d" fill-opacity="0.502"><g transform="translate(16.910582, 101.023051)"><g><path d="M 8.070312 -26.660156 C 8.617188 -28.652344 8.886719 -30.011719 8.890625 -30.675781 C 8.867188 -31.332031 8.621094 -31.660156 8.105469 -31.585938 C 7.78125 -31.542969 7.378906 -30.859375 6.875 -29.53125 C 6.335938 -28.199219 5.5625 -25.945312 4.597656 -22.707031 C 3.753906 -20.011719 3.019531 -17.265625 2.421875 -14.472656 C 1.757812 -11.671875 1.296875 -9.097656 1.023438 -6.8125 C 0.710938 -5.285156 0.613281 -3.851562 0.671875 -2.503906 C 0.699219 -1.121094 0.71875 -0.0664062 0.753906 0.652344 C 0.953125 2.078125 1.144531 2.746094 1.371094 2.710938 L 1.40625 2.707031 C 1.597656 2.679688 1.878906 1.847656 2.210938 0.21875 C 2.429688 -0.804688 2.582031 -1.585938 2.707031 -2.128906 L 5.550781 -3.71875 C 7.207031 -4.644531 8.65625 -5.609375 9.960938 -6.652344 C 11.203125 -7.6875 12.542969 -8.964844 13.96875 -10.550781 C 16.421875 -13.308594 18.128906 -15.957031 19.054688 -18.53125 C 19.625 -20.097656 19.835938 -21.417969 19.683594 -22.515625 C 19.585938 -23.195312 19.339844 -23.789062 18.96875 -24.300781 C 18.574219 -24.773438 18.039062 -25.058594 17.351562 -25.226562 C 16.636719 -25.390625 15.953125 -25.328125 15.257812 -25.097656 C 14.0625 -24.664062 12.765625 -23.789062 11.394531 -22.507812 C 10.027344 -21.191406 8.621094 -19.472656 7.164062 -17.386719 C 6.722656 -16.761719 6.359375 -16.285156 6.078125 -15.945312 C 5.734375 -15.566406 5.585938 -15.449219 5.566406 -15.578125 C 5.546875 -15.738281 5.621094 -16.378906 5.863281 -17.46875 C 6.105469 -18.558594 6.386719 -19.851562 6.765625 -21.394531 C 6.945312 -22.210938 7.15625 -23.066406 7.394531 -23.957031 C 7.597656 -24.84375 7.832031 -25.769531 8.070312 -26.660156 Z M 4.894531 -10.265625 C 5.402344 -11.359375 5.976562 -12.433594 6.683594 -13.523438 C 7.324219 -14.601562 8.039062 -15.628906 8.824219 -16.597656 C 10.195312 -18.375 11.597656 -19.894531 13.007812 -21.148438 C 14.359375 -22.328125 15.488281 -22.984375 16.332031 -23.101562 L 16.429688 -23.117188 C 16.691406 -23.121094 16.964844 -23.058594 17.175781 -22.957031 C 17.367188 -22.785156 17.496094 -22.574219 17.605469 -22.257812 L 17.640625 -22 C 17.714844 -21.480469 17.664062 -20.910156 17.519531 -20.296875 C 17.296875 -19.539062 16.984375 -18.703125 16.511719 -17.84375 C 15.617188 -16.199219 14.378906 -14.441406 12.730469 -12.554688 C 11.050781 -10.636719 9.183594 -8.886719 7.101562 -7.273438 C 6.207031 -6.585938 5.460938 -6.019531 4.800781 -5.53125 C 4.144531 -5.042969 3.785156 -4.792969 3.785156 -4.792969 C 3.558594 -4.761719 3.441406 -4.875 3.402344 -5.167969 C 3.363281 -5.425781 3.40625 -5.828125 3.527344 -6.375 C 3.734375 -7.492188 4.179688 -8.777344 4.894531 -10.265625 Z M 4.894531 -10.265625 "/></g></g></g><g fill="#dc3c4d" fill-opacity="0.502"><g transform="translate(37.471064, 98.129806)"><g><path d="M 12.515625 -29.335938 C 12.3125 -29.371094 12.113281 -29.378906 11.914062 -29.382812 C 11.71875 -29.355469 11.554688 -29.363281 11.359375 -29.335938 L 11.292969 -29.328125 C 10.390625 -29.167969 9.496094 -28.746094 8.574219 -28.019531 C 7.617188 -27.292969 6.644531 -26.230469 5.644531 -24.902344 C 4.21875 -23.050781 3.027344 -20.964844 2.097656 -18.65625 C 1.101562 -16.335938 0.433594 -14.0625 0.0507812 -11.828125 C -0.171875 -10.609375 -0.265625 -9.40625 -0.273438 -8.28125 C -0.308594 -7.355469 -0.25 -6.46875 -0.105469 -5.664062 L -0.015625 -5.050781 C 0.257812 -3.570312 0.609375 -2.464844 1.082031 -1.703125 C 1.550781 -0.945312 2.1875 -0.40625 2.988281 -0.125 C 3.546875 0.09375 4.117188 0.148438 4.699219 0.0664062 C 5.347656 -0.0273438 6.066406 -0.292969 6.796875 -0.757812 C 8.128906 -1.605469 9.453125 -2.980469 10.707031 -4.875 C 11.359375 -5.859375 12.027344 -6.976562 12.640625 -8.25 C 13.261719 -9.492188 13.832031 -10.828125 14.351562 -12.289062 C 15.386719 -15.273438 15.992188 -18.003906 16.238281 -20.480469 C 16.355469 -21.984375 16.335938 -23.300781 16.171875 -24.464844 C 16.070312 -25.179688 15.910156 -25.851562 15.695312 -26.445312 C 15.382812 -27.261719 14.964844 -27.894531 14.429688 -28.414062 C 13.898438 -28.902344 13.257812 -29.207031 12.515625 -29.335938 Z M 2.789062 -13.269531 C 3.160156 -14.378906 3.625 -15.535156 4.128906 -16.664062 C 4.601562 -17.753906 5.113281 -18.816406 5.664062 -19.816406 C 6.691406 -21.679688 7.730469 -23.210938 8.804688 -24.488281 C 9.886719 -25.730469 10.78125 -26.414062 11.558594 -26.523438 C 11.945312 -26.578125 12.324219 -26.46875 12.628906 -26.179688 C 12.902344 -25.890625 13.125 -25.457031 13.300781 -24.921875 C 13.378906 -24.601562 13.453125 -24.316406 13.5 -23.992188 C 13.625 -23.085938 13.617188 -21.960938 13.5 -20.691406 C 13.359375 -18.886719 12.933594 -16.976562 12.296875 -14.9375 C 11.5 -12.382812 10.539062 -10.070312 9.441406 -8 C 8.285156 -5.886719 7.203125 -4.414062 6.195312 -3.613281 C 5.480469 -3.050781 4.96875 -2.714844 4.617188 -2.632812 C 4.554688 -2.589844 4.492188 -2.582031 4.457031 -2.574219 C 4.136719 -2.53125 3.824219 -2.617188 3.523438 -2.875 C 3.230469 -3.097656 2.984375 -3.425781 2.792969 -3.859375 C 2.566406 -4.289062 2.390625 -4.828125 2.304688 -5.441406 C 2.246094 -5.632812 2.214844 -5.859375 2.175781 -6.117188 C 2.046875 -7.058594 1.996094 -8.105469 2.0625 -9.273438 C 2.125 -10.703125 2.371094 -12.023438 2.789062 -13.269531 Z M 2.789062 -13.269531 "/></g></g></g><g fill="#dc3c4d" fill-opacity="0.502"><g transform="translate(55.376492, 95.610178)"><g><path d="M 0.101562 5.402344 C 0.183594 5.523438 0.285156 5.539062 0.382812 5.527344 C 0.511719 5.507812 0.644531 5.292969 0.761719 4.945312 C 0.914062 4.394531 1.117188 3.011719 1.402344 0.824219 C 1.921875 -3.703125 2.585938 -7.894531 3.429688 -11.777344 C 4.238281 -15.65625 5.097656 -18.679688 6.015625 -20.859375 C 6.347656 -21.761719 6.664062 -22.335938 6.925781 -22.605469 C 7.15625 -22.835938 7.363281 -22.765625 7.484375 -22.386719 C 7.5 -22.257812 7.53125 -21.566406 7.566406 -20.382812 C 7.578125 -19.128906 7.574219 -17.742188 7.5625 -16.1875 C 7.507812 -12.582031 7.519531 -9.675781 7.632812 -7.480469 C 7.710938 -5.277344 7.882812 -3.585938 8.148438 -2.402344 C 8.273438 -1.757812 8.445312 -1.222656 8.667969 -0.824219 C 8.855469 -0.421875 9.0625 -0.121094 9.359375 0.101562 C 10.222656 0.839844 11.140625 0.777344 12.105469 -0.0859375 C 13.046875 -0.910156 14.011719 -2.5 14.976562 -4.816406 C 15.410156 -5.933594 16.035156 -7.605469 16.773438 -9.855469 C 17.515625 -12.105469 18.296875 -14.527344 19.125 -17.089844 C 19.898438 -19.574219 20.671875 -22.0625 21.417969 -24.511719 C 22.128906 -26.957031 22.703125 -28.984375 23.136719 -30.597656 C 23.347656 -31.453125 23.542969 -32.175781 23.664062 -32.71875 C 23.761719 -33.195312 23.816406 -33.5 23.800781 -33.628906 L 23.792969 -33.664062 C 23.703125 -33.847656 23.625 -33.9375 23.527344 -33.921875 C 23.398438 -33.902344 23.28125 -33.789062 23.136719 -33.636719 C 22.792969 -33.257812 22.289062 -32.394531 21.582031 -31.074219 C 21.242188 -30.429688 20.902344 -29.820312 20.59375 -29.183594 C 20.289062 -28.546875 19.984375 -27.875 19.6875 -27.175781 C 19.117188 -25.839844 18.535156 -24.335938 17.910156 -22.664062 C 17.296875 -20.925781 16.628906 -18.882812 15.847656 -16.460938 C 15.253906 -14.5625 14.695312 -12.898438 14.234375 -11.480469 C 13.773438 -10.0625 13.351562 -8.847656 12.996094 -7.839844 C 12.308594 -5.925781 11.796875 -4.632812 11.457031 -3.988281 C 11.085938 -3.34375 10.789062 -3.105469 10.601562 -3.273438 C 10.449219 -3.417969 10.300781 -4.71875 10.15625 -7.140625 C 10.011719 -9.566406 9.871094 -12.683594 9.800781 -16.46875 C 9.75 -18.707031 9.617188 -20.605469 9.371094 -22.121094 C 9.089844 -23.636719 8.792969 -24.582031 8.414062 -24.925781 C 8.308594 -24.976562 8.136719 -25.019531 7.867188 -25.046875 C 7.605469 -25.042969 7.378906 -25.011719 7.125 -24.945312 C 6.175781 -24.644531 5.226562 -23.15625 4.214844 -20.503906 C 3.207031 -17.820312 2.328125 -14.429688 1.589844 -10.296875 C 1.417969 -9.414062 1.261719 -8.398438 1.125 -7.257812 C 0.957031 -6.113281 0.792969 -4.933594 0.695312 -3.730469 C 0.507812 -2.25 0.375 -0.84375 0.265625 0.492188 C 0.125 1.832031 0.0507812 2.933594 0.0390625 3.792969 C 0.00390625 4.257812 -0.00390625 4.65625 0.03125 4.914062 C 0.015625 5.050781 0.03125 5.148438 0.0390625 5.210938 C 0.0585938 5.339844 0.0664062 5.40625 0.101562 5.402344 Z M 0.101562 5.402344 "/></g></g></g><g fill="#dc3c4d" fill-opacity="0.502"><g transform="translate(77.944458, 92.434443)"><g><path d="M 12.515625 -29.335938 C 12.3125 -29.371094 12.113281 -29.378906 11.914062 -29.382812 C 11.71875 -29.355469 11.554688 -29.363281 11.359375 -29.335938 L 11.292969 -29.328125 C 10.390625 -29.167969 9.496094 -28.746094 8.574219 -28.019531 C 7.617188 -27.292969 6.644531 -26.230469 5.644531 -24.902344 C 4.21875 -23.050781 3.027344 -20.964844 2.097656 -18.65625 C 1.101562 -16.335938 0.433594 -14.0625 0.0507812 -11.828125 C -0.171875 -10.609375 -0.265625 -9.40625 -0.273438 -8.28125 C -0.308594 -7.355469 -0.25 -6.46875 -0.105469 -5.664062 L -0.015625 -5.050781 C 0.257812 -3.570312 0.609375 -2.464844 1.082031 -1.703125 C 1.550781 -0.945312 2.1875 -0.40625 2.988281 -0.125 C 3.546875 0.09375 4.117188 0.148438 4.699219 0.0664062 C 5.347656 -0.0273438 6.066406 -0.292969 6.796875 -0.757812 C 8.128906 -1.605469 9.453125 -2.980469 10.707031 -4.875 C 11.359375 -5.859375 12.027344 -6.976562 12.640625 -8.25 C 13.261719 -9.492188 13.832031 -10.828125 14.351562 -12.289062 C 15.386719 -15.273438 15.992188 -18.003906 16.238281 -20.480469 C 16.355469 -21.984375 16.335938 -23.300781 16.171875 -24.464844 C 16.070312 -25.179688 15.910156 -25.851562 15.695312 -26.445312 C 15.382812 -27.261719 14.964844 -27.894531 14.429688 -28.414062 C 13.898438 -28.902344 13.257812 -29.207031 12.515625 -29.335938 Z M 2.789062 -13.269531 C 3.160156 -14.378906 3.625 -15.535156 4.128906 -16.664062 C 4.601562 -17.753906 5.113281 -18.816406 5.664062 -19.816406 C 6.691406 -21.679688 7.730469 -23.210938 8.804688 -24.488281 C 9.886719 -25.730469 10.78125 -26.414062 11.558594 -26.523438 C 11.945312 -26.578125 12.324219 -26.46875 12.628906 -26.179688 C 12.902344 -25.890625 13.125 -25.457031 13.300781 -24.921875 C 13.378906 -24.601562 13.453125 -24.316406 13.5 -23.992188 C 13.625 -23.085938 13.617188 -21.960938 13.5 -20.691406 C 13.359375 -18.886719 12.933594 -16.976562 12.296875 -14.9375 C 11.5 -12.382812 10.539062 -10.070312 9.441406 -8 C 8.285156 -5.886719 7.203125 -4.414062 6.195312 -3.613281 C 5.480469 -3.050781 4.96875 -2.714844 4.617188 -2.632812 C 4.554688 -2.589844 4.492188 -2.582031 4.457031 -2.574219 C 4.136719 -2.53125 3.824219 -2.617188 3.523438 -2.875 C 3.230469 -3.097656 2.984375 -3.425781 2.792969 -3.859375 C 2.566406 -4.289062 2.390625 -4.828125 2.304688 -5.441406 C 2.246094 -5.632812 2.214844 -5.859375 2.175781 -6.117188 C 2.046875 -7.058594 1.996094 -8.105469 2.0625 -9.273438 C 2.125 -10.703125 2.371094 -12.023438 2.789062 -13.269531 Z M 2.789062 -13.269531 "/></g></g></g><g fill="#dc3c4d" fill-opacity="0.502"><g transform="translate(95.849889, 89.914814)"><g><path d="M 8.542969 -23.292969 C 8.75 -24.644531 8.816406 -25.578125 8.804688 -26.136719 C 8.765625 -26.660156 8.597656 -26.902344 8.304688 -26.859375 L 8.273438 -26.855469 L 8.175781 -26.84375 C 7.925781 -26.742188 7.46875 -25.785156 6.796875 -23.972656 C 6.128906 -22.160156 5.441406 -19.984375 4.738281 -17.476562 C 4.339844 -16.097656 3.9375 -14.722656 3.578125 -13.285156 C 3.1875 -11.839844 2.855469 -10.441406 2.554688 -9.078125 C 2.515625 -8.875 2.351562 -8.621094 2.066406 -8.316406 C 1.785156 -7.976562 1.460938 -7.703125 1.128906 -7.457031 C 0.773438 -7.175781 0.417969 -6.894531 0.0664062 -6.582031 C -0.316406 -6.230469 -0.574219 -5.960938 -0.746094 -5.773438 C -1.023438 -5.402344 -1.21875 -5.144531 -1.363281 -4.992188 C -0.632812 -5.195312 -0.0585938 -5.339844 0.320312 -5.460938 C 1.050781 -5.664062 1.59375 -5.804688 1.972656 -5.925781 C 1.96875 -5.496094 1.949219 -5.160156 1.976562 -4.96875 C 1.949219 -4.699219 1.941406 -4.269531 1.921875 -3.703125 C 1.875 -3.105469 1.851562 -2.570312 1.859375 -2.042969 C 1.800781 -1.507812 1.820312 -0.917969 1.839844 -0.292969 C 1.867188 0.363281 1.902344 0.855469 1.953125 1.210938 C 2.035156 1.792969 2.113281 2.113281 2.1875 2.167969 C 2.238281 2.292969 2.324219 2.214844 2.492188 1.992188 C 2.632812 1.808594 2.894531 1.078125 3.238281 -0.222656 C 3.585938 -1.496094 4.1875 -3.792969 5.042969 -7.117188 C 5.078125 -7.320312 5.273438 -7.578125 5.558594 -7.914062 C 5.839844 -8.25 6.21875 -8.601562 6.628906 -8.988281 C 7.242188 -9.539062 7.898438 -10.058594 8.554688 -10.550781 C 9.179688 -11.035156 9.609375 -11.257812 9.847656 -11.226562 C 10.125 -11.132812 10.546875 -10.699219 11.121094 -9.917969 C 11.699219 -9.078125 12.476562 -7.796875 13.445312 -6.054688 C 14.4375 -4.179688 15.300781 -2.746094 16.027344 -1.792969 C 16.691406 -0.828125 17.429688 -0.0429688 18.199219 0.511719 C 18.6875 0.902344 19.007812 1.089844 19.203125 1.0625 C 19.269531 1.054688 19.300781 1.046875 19.324219 0.980469 C 19.425781 0.765625 19.222656 0.265625 18.773438 -0.59375 C 18.566406 -0.894531 18.257812 -1.445312 17.875 -2.285156 C 17.429688 -3.082031 17.050781 -3.917969 16.664062 -4.789062 C 15.824219 -6.519531 15.105469 -7.871094 14.503906 -8.875 C 13.902344 -9.847656 13.222656 -10.710938 12.484375 -11.5 C 12.179688 -11.785156 11.941406 -12.050781 11.773438 -12.324219 C 11.542969 -12.554688 11.449219 -12.738281 11.441406 -12.804688 C 11.429688 -12.871094 11.625 -13.128906 12.058594 -13.585938 C 12.488281 -14.042969 13.007812 -14.578125 13.613281 -15.191406 C 16.425781 -17.964844 18.359375 -20.414062 19.441406 -22.582031 C 20.058594 -23.824219 20.3125 -24.851562 20.203125 -25.628906 C 20.125 -26.179688 19.835938 -26.601562 19.363281 -26.898438 C 18.566406 -27.414062 17.390625 -27.3125 15.871094 -26.605469 C 14.324219 -25.859375 12.617188 -24.625 10.753906 -22.84375 C 10.113281 -22.226562 9.585938 -21.757812 9.113281 -21.359375 C 8.640625 -20.964844 8.371094 -20.761719 8.332031 -20.820312 C 8.265625 -20.8125 8.261719 -21.074219 8.324219 -21.578125 C 8.355469 -22.046875 8.441406 -22.621094 8.542969 -23.292969 Z M 11.703125 -21.722656 C 12.816406 -22.738281 13.882812 -23.617188 14.941406 -24.292969 C 15.96875 -24.964844 16.835938 -25.386719 17.472656 -25.542969 L 17.636719 -25.5625 C 17.832031 -25.589844 18.027344 -25.585938 18.199219 -25.542969 C 18.34375 -25.464844 18.464844 -25.316406 18.523438 -25.128906 C 18.609375 -24.511719 17.976562 -23.367188 16.664062 -21.664062 C 15.320312 -19.953125 13.546875 -18.019531 11.308594 -15.855469 C 10.699219 -15.242188 10.148438 -14.703125 9.644531 -14.300781 C 9.175781 -13.871094 8.875 -13.664062 8.746094 -13.648438 L 8.714844 -13.640625 C 7.875 -13.722656 7.316406 -13.710938 7.011719 -13.535156 C 6.707031 -13.359375 6.511719 -13.332031 6.484375 -13.527344 L 6.480469 -13.558594 C 6.457031 -13.722656 6.484375 -13.988281 6.597656 -14.367188 C 6.714844 -14.714844 6.800781 -15.023438 6.867188 -15.265625 C 7.113281 -16.09375 7.671875 -17.0625 8.5 -18.203125 C 9.335938 -19.3125 10.394531 -20.484375 11.703125 -21.722656 Z M 11.703125 -21.722656 "/></g></g></g><g fill="#fa3343" fill-opacity="1"><g transform="translate(17.719196, 100.294715)"><g><path d="M 8.070312 -26.660156 C 8.617188 -28.652344 8.886719 -30.011719 8.890625 -30.675781 C 8.867188 -31.332031 8.621094 -31.660156 8.105469 -31.585938 C 7.78125 -31.542969 7.378906 -30.859375 6.875 -29.53125 C 6.335938 -28.199219 5.5625 -25.945312 4.597656 -22.707031 C 3.753906 -20.011719 3.019531 -17.265625 2.421875 -14.472656 C 1.757812 -11.671875 1.296875 -9.097656 1.023438 -6.8125 C 0.710938 -5.285156 0.613281 -3.851562 0.671875 -2.503906 C 0.699219 -1.121094 0.71875 -0.0664062 0.753906 0.652344 C 0.953125 2.078125 1.144531 2.746094 1.371094 2.710938 L 1.40625 2.707031 C 1.597656 2.679688 1.878906 1.847656 2.210938 0.21875 C 2.429688 -0.804688 2.582031 -1.585938 2.707031 -2.128906 L 5.550781 -3.71875 C 7.207031 -4.644531 8.65625 -5.609375 9.960938 -6.652344 C 11.203125 -7.6875 12.542969 -8.964844 13.96875 -10.550781 C 16.421875 -13.308594 18.128906 -15.957031 19.054688 -18.53125 C 19.625 -20.097656 19.835938 -21.417969 19.683594 -22.515625 C 19.585938 -23.195312 19.339844 -23.789062 18.96875 -24.300781 C 18.574219 -24.773438 18.039062 -25.058594 17.351562 -25.226562 C 16.636719 -25.390625 15.953125 -25.328125 15.257812 -25.097656 C 14.0625 -24.664062 12.765625 -23.789062 11.394531 -22.507812 C 10.027344 -21.191406 8.621094 -19.472656 7.164062 -17.386719 C 6.722656 -16.761719 6.359375 -16.285156 6.078125 -15.945312 C 5.734375 -15.566406 5.585938 -15.449219 5.566406 -15.578125 C 5.546875 -15.738281 5.621094 -16.378906 5.863281 -17.46875 C 6.105469 -18.558594 6.386719 -19.851562 6.765625 -21.394531 C 6.945312 -22.210938 7.15625 -23.066406 7.394531 -23.957031 C 7.597656 -24.84375 7.832031 -25.769531 8.070312 -26.660156 Z M 4.894531 -10.265625 C 5.402344 -11.359375 5.976562 -12.433594 6.683594 -13.523438 C 7.324219 -14.601562 8.039062 -15.628906 8.824219 -16.597656 C 10.195312 -18.375 11.597656 -19.894531 13.007812 -21.148438 C 14.359375 -22.328125 15.488281 -22.984375 16.332031 -23.101562 L 16.429688 -23.117188 C 16.691406 -23.121094 16.964844 -23.058594 17.175781 -22.957031 C 17.367188 -22.785156 17.496094 -22.574219 17.605469 -22.257812 L 17.640625 -22 C 17.714844 -21.480469 17.664062 -20.910156 17.519531 -20.296875 C 17.296875 -19.539062 16.984375 -18.703125 16.511719 -17.84375 C 15.617188 -16.199219 14.378906 -14.441406 12.730469 -12.554688 C 11.050781 -10.636719 9.183594 -8.886719 7.101562 -7.273438 C 6.207031 -6.585938 5.460938 -6.019531 4.800781 -5.53125 C 4.144531 -5.042969 3.785156 -4.792969 3.785156 -4.792969 C 3.558594 -4.761719 3.441406 -4.875 3.402344 -5.167969 C 3.363281 -5.425781 3.40625 -5.828125 3.527344 -6.375 C 3.734375 -7.492188 4.179688 -8.777344 4.894531 -10.265625 Z M 4.894531 -10.265625 "/></g></g></g><g fill="#fa3343" fill-opacity="1"><g transform="translate(38.279678, 97.401471)"><g><path d="M 12.515625 -29.335938 C 12.3125 -29.371094 12.113281 -29.378906 11.914062 -29.382812 C 11.71875 -29.355469 11.554688 -29.363281 11.359375 -29.335938 L 11.292969 -29.328125 C 10.390625 -29.167969 9.496094 -28.746094 8.574219 -28.019531 C 7.617188 -27.292969 6.644531 -26.230469 5.644531 -24.902344 C 4.21875 -23.050781 3.027344 -20.964844 2.097656 -18.65625 C 1.101562 -16.335938 0.433594 -14.0625 0.0507812 -11.828125 C -0.171875 -10.609375 -0.265625 -9.40625 -0.273438 -8.28125 C -0.308594 -7.355469 -0.25 -6.46875 -0.105469 -5.664062 L -0.015625 -5.050781 C 0.257812 -3.570312 0.609375 -2.464844 1.082031 -1.703125 C 1.550781 -0.945312 2.1875 -0.40625 2.988281 -0.125 C 3.546875 0.09375 4.117188 0.148438 4.699219 0.0664062 C 5.347656 -0.0273438 6.066406 -0.292969 6.796875 -0.757812 C 8.128906 -1.605469 9.453125 -2.980469 10.707031 -4.875 C 11.359375 -5.859375 12.027344 -6.976562 12.640625 -8.25 C 13.261719 -9.492188 13.832031 -10.828125 14.351562 -12.289062 C 15.386719 -15.273438 15.992188 -18.003906 16.238281 -20.480469 C 16.355469 -21.984375 16.335938 -23.300781 16.171875 -24.464844 C 16.070312 -25.179688 15.910156 -25.851562 15.695312 -26.445312 C 15.382812 -27.261719 14.964844 -27.894531 14.429688 -28.414062 C 13.898438 -28.902344 13.257812 -29.207031 12.515625 -29.335938 Z M 2.789062 -13.269531 C 3.160156 -14.378906 3.625 -15.535156 4.128906 -16.664062 C 4.601562 -17.753906 5.113281 -18.816406 5.664062 -19.816406 C 6.691406 -21.679688 7.730469 -23.210938 8.804688 -24.488281 C 9.886719 -25.730469 10.78125 -26.414062 11.558594 -26.523438 C 11.945312 -26.578125 12.324219 -26.46875 12.628906 -26.179688 C 12.902344 -25.890625 13.125 -25.457031 13.300781 -24.921875 C 13.378906 -24.601562 13.453125 -24.316406 13.5 -23.992188 C 13.625 -23.085938 13.617188 -21.960938 13.5 -20.691406 C 13.359375 -18.886719 12.933594 -16.976562 12.296875 -14.9375 C 11.5 -12.382812 10.539062 -10.070312 9.441406 -8 C 8.285156 -5.886719 7.203125 -4.414062 6.195312 -3.613281 C 5.480469 -3.050781 4.96875 -2.714844 4.617188 -2.632812 C 4.554688 -2.589844 4.492188 -2.582031 4.457031 -2.574219 C 4.136719 -2.53125 3.824219 -2.617188 3.523438 -2.875 C 3.230469 -3.097656 2.984375 -3.425781 2.792969 -3.859375 C 2.566406 -4.289062 2.390625 -4.828125 2.304688 -5.441406 C 2.246094 -5.632812 2.214844 -5.859375 2.175781 -6.117188 C 2.046875 -7.058594 1.996094 -8.105469 2.0625 -9.273438 C 2.125 -10.703125 2.371094 -12.023438 2.789062 -13.269531 Z M 2.789062 -13.269531 "/></g></g></g><g fill="#fa3343" fill-opacity="1"><g transform="translate(56.185106, 94.881842)"><g><path d="M 0.101562 5.402344 C 0.183594 5.523438 0.285156 5.539062 0.382812 5.527344 C 0.511719 5.507812 0.644531 5.292969 0.761719 4.945312 C 0.914062 4.394531 1.117188 3.011719 1.402344 0.824219 C 1.921875 -3.703125 2.585938 -7.894531 3.429688 -11.777344 C 4.238281 -15.65625 5.097656 -18.679688 6.015625 -20.859375 C 6.347656 -21.761719 6.664062 -22.335938 6.925781 -22.605469 C 7.15625 -22.835938 7.363281 -22.765625 7.484375 -22.386719 C 7.5 -22.257812 7.53125 -21.566406 7.566406 -20.382812 C 7.578125 -19.128906 7.574219 -17.742188 7.5625 -16.1875 C 7.507812 -12.582031 7.519531 -9.675781 7.632812 -7.480469 C 7.710938 -5.277344 7.882812 -3.585938 8.148438 -2.402344 C 8.273438 -1.757812 8.445312 -1.222656 8.667969 -0.824219 C 8.855469 -0.421875 9.0625 -0.121094 9.359375 0.101562 C 10.222656 0.839844 11.140625 0.777344 12.105469 -0.0859375 C 13.046875 -0.910156 14.011719 -2.5 14.976562 -4.816406 C 15.410156 -5.933594 16.035156 -7.605469 16.773438 -9.855469 C 17.515625 -12.105469 18.296875 -14.527344 19.125 -17.089844 C 19.898438 -19.574219 20.671875 -22.0625 21.417969 -24.511719 C 22.128906 -26.957031 22.703125 -28.984375 23.136719 -30.597656 C 23.347656 -31.453125 23.542969 -32.175781 23.664062 -32.71875 C 23.761719 -33.195312 23.816406 -33.5 23.800781 -33.628906 L 23.792969 -33.664062 C 23.703125 -33.847656 23.625 -33.9375 23.527344 -33.921875 C 23.398438 -33.902344 23.28125 -33.789062 23.136719 -33.636719 C 22.792969 -33.257812 22.289062 -32.394531 21.582031 -31.074219 C 21.242188 -30.429688 20.902344 -29.820312 20.59375 -29.183594 C 20.289062 -28.546875 19.984375 -27.875 19.6875 -27.175781 C 19.117188 -25.839844 18.535156 -24.335938 17.910156 -22.664062 C 17.296875 -20.925781 16.628906 -18.882812 15.847656 -16.460938 C 15.253906 -14.5625 14.695312 -12.898438 14.234375 -11.480469 C 13.773438 -10.0625 13.351562 -8.847656 12.996094 -7.839844 C 12.308594 -5.925781 11.796875 -4.632812 11.457031 -3.988281 C 11.085938 -3.34375 10.789062 -3.105469 10.601562 -3.273438 C 10.449219 -3.417969 10.300781 -4.71875 10.15625 -7.140625 C 10.011719 -9.566406 9.871094 -12.683594 9.800781 -16.46875 C 9.75 -18.707031 9.617188 -20.605469 9.371094 -22.121094 C 9.089844 -23.636719 8.792969 -24.582031 8.414062 -24.925781 C 8.308594 -24.976562 8.136719 -25.019531 7.867188 -25.046875 C 7.605469 -25.042969 7.378906 -25.011719 7.125 -24.945312 C 6.175781 -24.644531 5.226562 -23.15625 4.214844 -20.503906 C 3.207031 -17.820312 2.328125 -14.429688 1.589844 -10.296875 C 1.417969 -9.414062 1.261719 -8.398438 1.125 -7.257812 C 0.957031 -6.113281 0.792969 -4.933594 0.695312 -3.730469 C 0.507812 -2.25 0.375 -0.84375 0.265625 0.492188 C 0.125 1.832031 0.0507812 2.933594 0.0390625 3.792969 C 0.00390625 4.257812 -0.00390625 4.65625 0.03125 4.914062 C 0.015625 5.050781 0.03125 5.148438 0.0390625 5.210938 C 0.0585938 5.339844 0.0664062 5.40625 0.101562 5.402344 Z M 0.101562 5.402344 "/></g></g></g><g fill="#fa3343" fill-opacity="1"><g transform="translate(78.753072, 91.706107)"><g><path d="M 12.515625 -29.335938 C 12.3125 -29.371094 12.113281 -29.378906 11.914062 -29.382812 C 11.71875 -29.355469 11.554688 -29.363281 11.359375 -29.335938 L 11.292969 -29.328125 C 10.390625 -29.167969 9.496094 -28.746094 8.574219 -28.019531 C 7.617188 -27.292969 6.644531 -26.230469 5.644531 -24.902344 C 4.21875 -23.050781 3.027344 -20.964844 2.097656 -18.65625 C 1.101562 -16.335938 0.433594 -14.0625 0.0507812 -11.828125 C -0.171875 -10.609375 -0.265625 -9.40625 -0.273438 -8.28125 C -0.308594 -7.355469 -0.25 -6.46875 -0.105469 -5.664062 L -0.015625 -5.050781 C 0.257812 -3.570312 0.609375 -2.464844 1.082031 -1.703125 C 1.550781 -0.945312 2.1875 -0.40625 2.988281 -0.125 C 3.546875 0.09375 4.117188 0.148438 4.699219 0.0664062 C 5.347656 -0.0273438 6.066406 -0.292969 6.796875 -0.757812 C 8.128906 -1.605469 9.453125 -2.980469 10.707031 -4.875 C 11.359375 -5.859375 12.027344 -6.976562 12.640625 -8.25 C 13.261719 -9.492188 13.832031 -10.828125 14.351562 -12.289062 C 15.386719 -15.273438 15.992188 -18.003906 16.238281 -20.480469 C 16.355469 -21.984375 16.335938 -23.300781 16.171875 -24.464844 C 16.070312 -25.179688 15.910156 -25.851562 15.695312 -26.445312 C 15.382812 -27.261719 14.964844 -27.894531 14.429688 -28.414062 C 13.898438 -28.902344 13.257812 -29.207031 12.515625 -29.335938 Z M 2.789062 -13.269531 C 3.160156 -14.378906 3.625 -15.535156 4.128906 -16.664062 C 4.601562 -17.753906 5.113281 -18.816406 5.664062 -19.816406 C 6.691406 -21.679688 7.730469 -23.210938 8.804688 -24.488281 C 9.886719 -25.730469 10.78125 -26.414062 11.558594 -26.523438 C 11.945312 -26.578125 12.324219 -26.46875 12.628906 -26.179688 C 12.902344 -25.890625 13.125 -25.457031 13.300781 -24.921875 C 13.378906 -24.601562 13.453125 -24.316406 13.5 -23.992188 C 13.625 -23.085938 13.617188 -21.960938 13.5 -20.691406 C 13.359375 -18.886719 12.933594 -16.976562 12.296875 -14.9375 C 11.5 -12.382812 10.539062 -10.070312 9.441406 -8 C 8.285156 -5.886719 7.203125 -4.414062 6.195312 -3.613281 C 5.480469 -3.050781 4.96875 -2.714844 4.617188 -2.632812 C 4.554688 -2.589844 4.492188 -2.582031 4.457031 -2.574219 C 4.136719 -2.53125 3.824219 -2.617188 3.523438 -2.875 C 3.230469 -3.097656 2.984375 -3.425781 2.792969 -3.859375 C 2.566406 -4.289062 2.390625 -4.828125 2.304688 -5.441406 C 2.246094 -5.632812 2.214844 -5.859375 2.175781 -6.117188 C 2.046875 -7.058594 1.996094 -8.105469 2.0625 -9.273438 C 2.125 -10.703125 2.371094 -12.023438 2.789062 -13.269531 Z M 2.789062 -13.269531 "/></g></g></g><g fill="#fa3343" fill-opacity="1"><g transform="translate(96.658503, 89.186478)"><g><path d="M 8.542969 -23.292969 C 8.75 -24.644531 8.816406 -25.578125 8.804688 -26.136719 C 8.765625 -26.660156 8.597656 -26.902344 8.304688 -26.859375 L 8.273438 -26.855469 L 8.175781 -26.84375 C 7.925781 -26.742188 7.46875 -25.785156 6.796875 -23.972656 C 6.128906 -22.160156 5.441406 -19.984375 4.738281 -17.476562 C 4.339844 -16.097656 3.9375 -14.722656 3.578125 -13.285156 C 3.1875 -11.839844 2.855469 -10.441406 2.554688 -9.078125 C 2.515625 -8.875 2.351562 -8.621094 2.066406 -8.316406 C 1.785156 -7.976562 1.460938 -7.703125 1.128906 -7.457031 C 0.773438 -7.175781 0.417969 -6.894531 0.0664062 -6.582031 C -0.316406 -6.230469 -0.574219 -5.960938 -0.746094 -5.773438 C -1.023438 -5.402344 -1.21875 -5.144531 -1.363281 -4.992188 C -0.632812 -5.195312 -0.0585938 -5.339844 0.320312 -5.460938 C 1.050781 -5.664062 1.59375 -5.804688 1.972656 -5.925781 C 1.96875 -5.496094 1.949219 -5.160156 1.976562 -4.96875 C 1.949219 -4.699219 1.941406 -4.269531 1.921875 -3.703125 C 1.875 -3.105469 1.851562 -2.570312 1.859375 -2.042969 C 1.800781 -1.507812 1.820312 -0.917969 1.839844 -0.292969 C 1.867188 0.363281 1.902344 0.855469 1.953125 1.210938 C 2.035156 1.792969 2.113281 2.113281 2.1875 2.167969 C 2.238281 2.292969 2.324219 2.214844 2.492188 1.992188 C 2.632812 1.808594 2.894531 1.078125 3.238281 -0.222656 C 3.585938 -1.496094 4.1875 -3.792969 5.042969 -7.117188 C 5.078125 -7.320312 5.273438 -7.578125 5.558594 -7.914062 C 5.839844 -8.25 6.21875 -8.601562 6.628906 -8.988281 C 7.242188 -9.539062 7.898438 -10.058594 8.554688 -10.550781 C 9.179688 -11.035156 9.609375 -11.257812 9.847656 -11.226562 C 10.125 -11.132812 10.546875 -10.699219 11.121094 -9.917969 C 11.699219 -9.078125 12.476562 -7.796875 13.445312 -6.054688 C 14.4375 -4.179688 15.300781 -2.746094 16.027344 -1.792969 C 16.691406 -0.828125 17.429688 -0.0429688 18.199219 0.511719 C 18.6875 0.902344 19.007812 1.089844 19.203125 1.0625 C 19.269531 1.054688 19.300781 1.046875 19.324219 0.980469 C 19.425781 0.765625 19.222656 0.265625 18.773438 -0.59375 C 18.566406 -0.894531 18.257812 -1.445312 17.875 -2.285156 C 17.429688 -3.082031 17.050781 -3.917969 16.664062 -4.789062 C 15.824219 -6.519531 15.105469 -7.871094 14.503906 -8.875 C 13.902344 -9.847656 13.222656 -10.710938 12.484375 -11.5 C 12.179688 -11.785156 11.941406 -12.050781 11.773438 -12.324219 C 11.542969 -12.554688 11.449219 -12.738281 11.441406 -12.804688 C 11.429688 -12.871094 11.625 -13.128906 12.058594 -13.585938 C 12.488281 -14.042969 13.007812 -14.578125 13.613281 -15.191406 C 16.425781 -17.964844 18.359375 -20.414062 19.441406 -22.582031 C 20.058594 -23.824219 20.3125 -24.851562 20.203125 -25.628906 C 20.125 -26.179688 19.835938 -26.601562 19.363281 -26.898438 C 18.566406 -27.414062 17.390625 -27.3125 15.871094 -26.605469 C 14.324219 -25.859375 12.617188 -24.625 10.753906 -22.84375 C 10.113281 -22.226562 9.585938 -21.757812 9.113281 -21.359375 C 8.640625 -20.964844 8.371094 -20.761719 8.332031 -20.820312 C 8.265625 -20.8125 8.261719 -21.074219 8.324219 -21.578125 C 8.355469 -22.046875 8.441406 -22.621094 8.542969 -23.292969 Z M 11.703125 -21.722656 C 12.816406 -22.738281 13.882812 -23.617188 14.941406 -24.292969 C 15.96875 -24.964844 16.835938 -25.386719 17.472656 -25.542969 L 17.636719 -25.5625 C 17.832031 -25.589844 18.027344 -25.585938 18.199219 -25.542969 C 18.34375 -25.464844 18.464844 -25.316406 18.523438 -25.128906 C 18.609375 -24.511719 17.976562 -23.367188 16.664062 -21.664062 C 15.320312 -19.953125 13.546875 -18.019531 11.308594 -15.855469 C 10.699219 -15.242188 10.148438 -14.703125 9.644531 -14.300781 C 9.175781 -13.871094 8.875 -13.664062 8.746094 -13.648438 L 8.714844 -13.640625 C 7.875 -13.722656 7.316406 -13.710938 7.011719 -13.535156 C 6.707031 -13.359375 6.511719 -13.332031 6.484375 -13.527344 L 6.480469 -13.558594 C 6.457031 -13.722656 6.484375 -13.988281 6.597656 -14.367188 C 6.714844 -14.714844 6.800781 -15.023438 6.867188 -15.265625 C 7.113281 -16.09375 7.671875 -17.0625 8.5 -18.203125 C 9.335938 -19.3125 10.394531 -20.484375 11.703125 -21.722656 Z M 11.703125 -21.722656 "/></g></g></g><g clip-path="url(#5cb5ccb7d4)"><path fill="#dd2c00" d="M 87.796875 54.28125 C 87.796875 67.453125 77.136719 78.0625 63.902344 78.0625 C 50.667969 78.0625 40.007812 67.453125 40.007812 54.28125 C 40.007812 41.113281 63.902344 4.890625 63.902344 4.890625 C 63.902344 4.890625 87.796875 41.113281 87.796875 54.28125 Z M 87.796875 54.28125 " fill-opacity="1" fill-rule="nonzero"/></g><path fill="#ffccbc" d="M 63.902344 68.914062 C 55.816406 68.914062 49.199219 62.332031 49.199219 54.28125 C 49.199219 52.269531 50.851562 50.625 52.875 50.625 C 54.894531 50.625 56.550781 52.269531 56.550781 54.28125 C 56.550781 58.304688 59.859375 61.597656 63.902344 61.597656 C 65.925781 61.597656 67.578125 63.246094 67.578125 65.257812 C 67.578125 67.269531 65.925781 68.914062 63.902344 68.914062 Z M 63.902344 68.914062 " fill-opacity="1" fill-rule="nonzero"/></svg>