<svg xmlns="http://www.w3.org/2000/svg" xmlns:xlink="http://www.w3.org/1999/xlink" width="256" zoomAndPan="magnify" viewBox="0 0 192 191.999996" height="256" preserveAspectRatio="xMidYMid meet" version="1.0"><rect x="-19.2" width="230.4" fill="#ffffff" y="-19.2" height="230.399995" fill-opacity="1"/><rect x="-19.2" width="230.4" fill="#ffffff" y="-19.2" height="230.399995" fill-opacity="1"/><path fill="#46963a" d="M 24.914062 74.519531 L 66.863281 74.519531 L 66.863281 32.414062 C 68.367188 32.707031 69.820312 33.15625 71.230469 33.753906 C 72.640625 34.355469 73.972656 35.09375 75.230469 35.96875 C 76.484375 36.847656 77.636719 37.84375 78.683594 38.960938 C 79.734375 40.078125 80.65625 41.292969 81.449219 42.601562 C 82.660156 44.5625 83.585938 46.652344 84.222656 48.871094 C 84.863281 51.085938 85.195312 53.347656 85.21875 55.65625 L 85.21875 86.820312 C 85.207031 87.671875 85.117188 88.515625 84.957031 89.347656 C 84.890625 89.726562 84.769531 90.085938 84.59375 90.425781 C 84.417969 90.769531 84.195312 91.074219 83.925781 91.347656 C 83.65625 91.621094 83.351562 91.847656 83.011719 92.027344 C 82.675781 92.207031 82.316406 92.335938 81.941406 92.40625 C 81.046875 92.597656 80.140625 92.699219 79.226562 92.707031 L 48.28125 92.707031 C 47.285156 92.761719 46.292969 92.746094 45.296875 92.667969 C 44.304688 92.589844 43.316406 92.445312 42.34375 92.234375 C 41.367188 92.027344 40.410156 91.753906 39.472656 91.417969 C 38.53125 91.082031 37.617188 90.683594 36.730469 90.226562 C 35.84375 89.769531 34.992188 89.257812 34.171875 88.6875 C 33.355469 88.117188 32.578125 87.496094 31.839844 86.820312 C 31.101562 86.148438 30.414062 85.429688 29.773438 84.664062 C 29.128906 83.902344 28.542969 83.097656 28.003906 82.253906 C 27.042969 80.515625 26.199219 78.714844 25.480469 76.859375 L 24.914062 75.652344 Z M 24.914062 131.945312 C 25.441406 130.664062 25.894531 129.34375 26.5 128.171875 C 26.898438 127.277344 27.355469 126.414062 27.867188 125.578125 C 28.382812 124.742188 28.949219 123.945312 29.570312 123.1875 C 30.191406 122.429688 30.859375 121.714844 31.578125 121.046875 C 32.292969 120.375 33.050781 119.757812 33.847656 119.191406 C 34.648438 118.621094 35.480469 118.109375 36.347656 117.652344 C 37.214844 117.195312 38.105469 116.796875 39.027344 116.460938 C 39.945312 116.125 40.882812 115.847656 41.839844 115.636719 C 42.796875 115.425781 43.765625 115.277344 44.738281 115.195312 C 46.628906 114.960938 48.527344 114.859375 50.429688 114.890625 L 79.828125 114.890625 C 83.597656 114.890625 84.957031 116.589844 85.105469 120.25 L 85.105469 151.414062 C 85.175781 154.175781 84.800781 156.871094 83.980469 159.507812 C 83.160156 162.144531 81.941406 164.578125 80.320312 166.808594 C 78.664062 168.964844 76.683594 170.761719 74.382812 172.203125 C 72.082031 173.644531 69.597656 174.640625 66.941406 175.1875 L 66.941406 133.117188 L 24.914062 133.117188 Z M 24.914062 131.945312 " fill-opacity="1" fill-rule="nonzero"/><path fill="#00549c" d="M 778.714844 113.648438 C 778.53125 114.0625 778.285156 114.441406 777.984375 114.78125 C 777.679688 115.125 777.335938 115.410156 776.941406 115.644531 C 776.550781 115.875 776.132812 116.046875 775.691406 116.148438 C 775.246094 116.253906 774.796875 116.285156 774.34375 116.25 L 747.207031 118.0625 C 744.457031 118.0625 741.703125 118.289062 738.800781 118.4375 C 738.71875 121.699219 739.09375 124.90625 739.933594 128.058594 C 740.226562 129.429688 740.648438 130.757812 741.199219 132.046875 C 741.75 133.335938 742.417969 134.5625 743.199219 135.722656 C 743.984375 136.882812 744.871094 137.957031 745.863281 138.945312 C 746.855469 139.9375 747.929688 140.824219 749.089844 141.605469 C 749.917969 142.164062 750.78125 142.652344 751.679688 143.078125 C 752.582031 143.5 753.507812 143.855469 754.460938 144.136719 C 755.417969 144.421875 756.386719 144.628906 757.375 144.765625 C 758.359375 144.898438 759.351562 144.957031 760.34375 144.941406 C 761.339844 144.925781 762.328125 144.832031 763.308594 144.664062 C 764.289062 144.496094 765.253906 144.253906 766.195312 143.941406 C 767.140625 143.625 768.054688 143.242188 768.941406 142.785156 C 769.828125 142.332031 770.671875 141.8125 771.480469 141.226562 C 772.988281 140.285156 774.382812 139.117188 775.925781 137.945312 L 778.1875 141.039062 C 776.117188 143.9375 773.667969 146.46875 770.84375 148.632812 C 768.015625 150.800781 764.9375 152.507812 761.605469 153.753906 C 759.1875 154.734375 756.671875 155.289062 754.066406 155.414062 C 751.058594 155.480469 748.128906 155.042969 745.269531 154.105469 C 742.414062 153.167969 739.792969 151.78125 737.40625 149.945312 C 735.230469 148.234375 733.347656 146.246094 731.761719 143.976562 C 730.175781 141.710938 728.957031 139.257812 728.097656 136.625 C 727.351562 134.441406 726.808594 132.203125 726.46875 129.917969 C 726.132812 127.632812 726.003906 125.335938 726.089844 123.027344 C 726.171875 120.71875 726.464844 118.4375 726.96875 116.179688 C 727.46875 113.925781 728.175781 111.734375 729.078125 109.609375 C 731.171875 104.808594 734.1875 100.683594 738.125 97.234375 C 741.589844 94.058594 745.5625 91.742188 750.035156 90.292969 C 751.207031 89.902344 752.402344 89.613281 753.625 89.429688 C 754.847656 89.246094 756.074219 89.167969 757.3125 89.199219 C 758.546875 89.226562 759.769531 89.359375 760.980469 89.601562 C 762.195312 89.839844 763.375 90.179688 764.53125 90.625 C 765.683594 91.070312 766.789062 91.609375 767.851562 92.242188 C 768.910156 92.878906 769.90625 93.601562 770.84375 94.40625 C 771.78125 95.214844 772.640625 96.097656 773.421875 97.054688 C 774.207031 98.007812 774.902344 99.027344 775.511719 100.101562 C 776.636719 102.414062 777.601562 104.792969 778.414062 107.234375 C 778.5 107.429688 778.601562 107.617188 778.714844 107.800781 Z M 739.667969 112.175781 L 754.367188 112.175781 C 757.269531 112.175781 760.136719 111.988281 763.035156 111.761719 C 765.109375 111.761719 765.714844 110.929688 765.601562 108.855469 C 765.566406 107.230469 765.339844 105.632812 764.921875 104.0625 C 764.691406 102.925781 764.296875 101.84375 763.742188 100.820312 C 763.191406 99.800781 762.496094 98.882812 761.667969 98.066406 C 760.835938 97.253906 759.90625 96.578125 758.875 96.046875 C 757.84375 95.511719 756.753906 95.140625 755.613281 94.933594 C 754.488281 94.761719 753.359375 94.761719 752.234375 94.929688 C 751.109375 95.101562 750.035156 95.433594 749.007812 95.925781 C 747.984375 96.421875 747.054688 97.058594 746.21875 97.832031 C 745.386719 98.609375 744.683594 99.492188 744.117188 100.480469 C 741.761719 104.046875 740.28125 107.945312 739.667969 112.175781 Z M 25.554688 91.160156 C 27.175781 92.40625 28.609375 93.6875 30.230469 94.746094 C 32.484375 96.148438 34.898438 97.191406 37.46875 97.875 C 40.039062 98.554688 42.648438 98.847656 45.304688 98.742188 L 83.976562 98.742188 C 84.492188 98.753906 85.003906 98.707031 85.507812 98.605469 C 86.015625 98.503906 86.503906 98.351562 86.980469 98.148438 C 87.453125 97.941406 87.898438 97.691406 88.320312 97.390625 C 88.738281 97.089844 89.125 96.75 89.472656 96.367188 C 89.820312 95.984375 90.121094 95.570312 90.382812 95.125 C 90.640625 94.679688 90.851562 94.210938 91.011719 93.71875 C 91.171875 93.226562 91.277344 92.722656 91.328125 92.210938 C 91.382812 91.695312 91.382812 91.183594 91.324219 90.667969 L 91.324219 56.484375 C 91.292969 53.199219 91.054688 49.929688 90.609375 46.675781 C 90.257812 44.335938 89.546875 42.105469 88.484375 39.992188 C 87.421875 37.875 86.058594 35.980469 84.390625 34.300781 C 84.09375 33.988281 83.816406 33.664062 83.5625 33.320312 L 108.925781 33.320312 L 106.851562 35.695312 C 105.414062 37.429688 104.253906 39.332031 103.371094 41.40625 C 102.492188 43.484375 101.933594 45.640625 101.691406 47.882812 C 101.332031 50.386719 101.140625 52.902344 101.125 55.429688 L 101.125 90.746094 C 101.039062 91.863281 101.171875 92.957031 101.523438 94.023438 C 101.875 95.089844 102.421875 96.046875 103.160156 96.894531 C 103.871094 97.625 104.695312 98.175781 105.644531 98.550781 C 106.589844 98.925781 107.570312 99.089844 108.585938 99.046875 L 148.386719 99.046875 C 150.855469 99.074219 153.273438 98.738281 155.640625 98.03125 C 158.003906 97.320312 160.210938 96.277344 162.257812 94.894531 C 163.765625 93.800781 165.160156 92.59375 166.742188 91.347656 L 166.742188 116.96875 L 164.367188 114.703125 C 162.5 113.089844 160.417969 111.828125 158.125 110.914062 C 155.832031 110.003906 153.453125 109.492188 150.988281 109.382812 C 147.21875 109.082031 143.035156 108.816406 139.039062 108.78125 L 109.492188 108.78125 C 107.738281 108.835938 106.066406 109.238281 104.480469 109.988281 C 103.910156 110.296875 103.402344 110.683594 102.949219 111.144531 C 102.496094 111.609375 102.125 112.128906 101.828125 112.703125 C 101.53125 113.277344 101.328125 113.882812 101.214844 114.519531 C 101.101562 115.15625 101.082031 115.796875 101.160156 116.4375 L 101.160156 154.886719 C 101.078125 157.550781 101.382812 160.164062 102.074219 162.738281 C 102.769531 165.308594 103.820312 167.722656 105.234375 169.980469 C 106.289062 171.488281 107.492188 172.882812 108.699219 174.394531 L 83.449219 174.394531 C 84.765625 172.65625 86.199219 170.886719 87.441406 169 C 89.007812 166.523438 89.960938 163.832031 90.308594 160.925781 C 92.265625 146.207031 90.835938 131.417969 91.210938 116.664062 C 91.269531 116.125 91.265625 115.582031 91.203125 115.042969 C 91.136719 114.5 91.015625 113.972656 90.832031 113.460938 C 90.648438 112.945312 90.410156 112.460938 90.117188 112 C 89.824219 111.542969 89.484375 111.121094 89.097656 110.738281 C 88.710938 110.355469 88.285156 110.019531 87.820312 109.734375 C 87.359375 109.449219 86.867188 109.214844 86.355469 109.039062 C 85.839844 108.863281 85.308594 108.746094 84.769531 108.691406 C 84.226562 108.632812 83.6875 108.640625 83.144531 108.703125 L 50.46875 108.703125 C 47.304688 108.703125 44.097656 108.703125 40.933594 109.15625 C 38.144531 109.398438 35.484375 110.113281 32.953125 111.300781 C 30.417969 112.488281 28.167969 114.074219 26.195312 116.0625 L 25.554688 116.589844 Z M 519.03125 90.519531 L 519.03125 68.9375 C 519.003906 67.535156 518.789062 66.164062 518.390625 64.824219 C 518.246094 64.382812 518.035156 63.972656 517.765625 63.59375 C 517.496094 63.214844 517.175781 62.882812 516.804688 62.601562 C 516.4375 62.316406 516.03125 62.09375 515.597656 61.933594 C 515.160156 61.773438 514.710938 61.679688 514.246094 61.65625 C 512.601562 61.328125 510.941406 61.113281 509.269531 61.011719 C 508.402344 61.011719 508.0625 60.671875 508.140625 59.804688 C 508.175781 59.277344 508.175781 58.75 508.140625 58.222656 C 508.140625 57.429688 508.441406 57.238281 509.195312 57.089844 L 530.226562 52.75 L 531.734375 52.371094 L 531.734375 136.097656 C 531.734375 137.644531 531.734375 139.230469 531.921875 140.777344 C 532.222656 145.113281 534.296875 145.339844 537.121094 145.679688 C 538.480469 145.679688 539.875 145.90625 541.230469 146.019531 C 542.589844 146.132812 542.625 146.398438 542.511719 147.417969 C 542.550781 147.980469 542.550781 148.546875 542.511719 149.113281 C 542.511719 149.527344 541.984375 150.132812 541.609375 150.207031 C 539.382812 150.660156 537.160156 150.964844 534.9375 151.378906 C 532.714844 151.792969 529.847656 152.359375 527.398438 153 C 524.949219 153.640625 522.046875 154.433594 519.183594 155.226562 L 519.183594 146.320312 L 516.054688 148.132812 C 512.285156 150.207031 508.78125 152.472656 504.933594 154.285156 C 503.40625 154.964844 501.804688 155.363281 500.128906 155.472656 C 498.457031 155.582031 496.820312 155.398438 495.210938 154.925781 C 493.886719 154.589844 492.589844 154.164062 491.324219 153.640625 C 490.058594 153.121094 488.835938 152.515625 487.65625 151.820312 C 486.476562 151.125 485.351562 150.351562 484.285156 149.496094 C 483.214844 148.640625 482.210938 147.714844 481.277344 146.71875 C 480.339844 145.71875 479.476562 144.660156 478.691406 143.539062 C 477.90625 142.417969 477.203125 141.25 476.582031 140.027344 C 475.960938 138.804688 475.433594 137.546875 474.992188 136.25 C 474.550781 134.953125 474.207031 133.632812 473.953125 132.285156 C 473.40625 129.863281 473.117188 127.414062 473.085938 124.929688 C 473.222656 121.644531 473.699219 118.414062 474.519531 115.230469 C 475.527344 111.652344 477.121094 108.355469 479.304688 105.347656 C 480.621094 103.425781 482.109375 101.644531 483.765625 100.007812 C 485.421875 98.371094 487.21875 96.90625 489.15625 95.613281 C 491.09375 94.320312 493.136719 93.222656 495.28125 92.324219 C 497.429688 91.421875 499.640625 90.730469 501.921875 90.253906 C 504.5625 89.554688 507.253906 89.207031 509.984375 89.207031 C 512.71875 89.207031 515.410156 89.554688 518.050781 90.253906 C 518.367188 90.382812 518.695312 90.472656 519.03125 90.519531 Z M 519.03125 121.871094 L 519.03125 103.308594 C 519.0625 102.695312 518.914062 102.128906 518.578125 101.609375 C 517.78125 100.472656 516.847656 99.453125 515.777344 98.5625 C 514.707031 97.671875 513.539062 96.9375 512.273438 96.355469 C 511.007812 95.777344 509.691406 95.371094 508.316406 95.144531 C 506.945312 94.914062 505.566406 94.871094 504.183594 95.007812 C 502.648438 95.160156 501.167969 95.519531 499.738281 96.089844 C 498.308594 96.660156 496.984375 97.417969 495.765625 98.363281 C 494.550781 99.308594 493.488281 100.402344 492.578125 101.648438 C 491.671875 102.890625 490.953125 104.238281 490.425781 105.6875 C 489.445312 107.871094 488.691406 110.132812 488.164062 112.46875 C 487.636719 114.804688 487.347656 117.171875 487.296875 119.566406 C 487.246094 121.960938 487.433594 124.335938 487.855469 126.695312 C 488.28125 129.050781 488.9375 131.34375 489.820312 133.570312 C 490.644531 135.859375 491.863281 137.914062 493.46875 139.742188 C 495.078125 141.566406 496.964844 143.03125 499.132812 144.132812 C 500.636719 144.855469 502.210938 145.363281 503.855469 145.652344 C 505.5 145.941406 507.152344 146.003906 508.8125 145.84375 C 510.472656 145.679688 512.082031 145.296875 513.636719 144.691406 C 515.195312 144.089844 516.640625 143.285156 517.976562 142.285156 C 518.335938 142.09375 518.609375 141.820312 518.800781 141.464844 C 518.996094 141.109375 519.070312 140.726562 519.03125 140.324219 Z M 227.347656 114.101562 C 227.347656 123.457031 227.121094 132.511719 227.347656 141.53125 C 227.535156 145.984375 228.96875 147.644531 233.832031 148.511719 C 236.320312 149 238.84375 149.152344 241.367188 149.453125 C 241.34375 149.527344 241.34375 149.605469 241.367188 149.679688 C 241.671875 153.453125 241.671875 153.453125 237.789062 153.453125 L 202.246094 153.453125 C 200.777344 153.453125 200.210938 153.074219 200.4375 151.605469 L 200.4375 149.265625 C 202.019531 149.265625 203.605469 148.964844 205.1875 148.660156 C 206.796875 148.410156 208.367188 148.007812 209.898438 147.453125 C 210.335938 147.257812 210.738281 147.007812 211.105469 146.699219 C 211.472656 146.390625 211.792969 146.039062 212.0625 145.644531 C 212.332031 145.246094 212.539062 144.820312 212.691406 144.367188 C 212.84375 143.910156 212.929688 143.441406 212.949219 142.964844 C 213.328125 138.019531 213.589844 133.078125 213.628906 128.136719 L 213.628906 77.125 C 213.492188 74.507812 213.164062 71.917969 212.648438 69.351562 C 212.511719 68.832031 212.300781 68.34375 212.007812 67.890625 C 211.71875 67.441406 211.367188 67.042969 210.949219 66.707031 C 210.53125 66.367188 210.074219 66.101562 209.570312 65.90625 C 209.070312 65.714844 208.550781 65.605469 208.011719 65.578125 C 206.429688 65.277344 204.808594 65.238281 203.1875 65.011719 C 202.472656 65.011719 201.757812 64.671875 201.871094 63.617188 C 201.984375 62.558594 201.871094 61.917969 201.871094 60.9375 C 202.234375 60.90625 202.597656 60.90625 202.964844 60.9375 L 241.671875 60.9375 C 247.585938 60.859375 253.199219 62.117188 258.519531 64.710938 C 260.226562 65.53125 261.804688 66.550781 263.257812 67.765625 C 264.710938 68.984375 265.992188 70.363281 267.097656 71.902344 C 268.203125 73.441406 269.101562 75.09375 269.792969 76.859375 C 270.484375 78.625 270.949219 80.449219 271.183594 82.332031 C 271.707031 85.339844 271.773438 88.359375 271.378906 91.390625 C 270.988281 94.421875 270.15625 97.324219 268.882812 100.101562 C 268.121094 101.679688 267.214844 103.167969 266.171875 104.574219 C 265.125 105.976562 263.957031 107.269531 262.667969 108.453125 C 261.375 109.636719 259.984375 110.6875 258.496094 111.605469 C 257.003906 112.523438 255.441406 113.289062 253.808594 113.910156 C 249.609375 115.464844 245.273438 116.371094 240.804688 116.628906 C 236.46875 117.003906 232.851562 114.96875 228.816406 114.441406 C 228.316406 114.382812 227.824219 114.269531 227.347656 114.101562 Z M 227.347656 89.5 L 227.347656 107.382812 C 227.347656 108.667969 227.800781 109.195312 228.929688 109.382812 C 231.230469 109.722656 233.53125 110.214844 235.867188 110.363281 C 236.957031 110.496094 238.054688 110.53125 239.152344 110.464844 C 240.25 110.398438 241.332031 110.230469 242.402344 109.96875 C 243.46875 109.703125 244.503906 109.347656 245.507812 108.894531 C 246.511719 108.441406 247.464844 107.90625 248.371094 107.277344 C 249.277344 106.652344 250.121094 105.949219 250.898438 105.171875 C 251.675781 104.394531 252.378906 103.550781 253.003906 102.644531 C 253.628906 101.738281 254.167969 100.785156 254.617188 99.777344 C 255.070312 98.773438 255.425781 97.738281 255.691406 96.667969 C 256.476562 94.03125 256.902344 91.335938 256.972656 88.585938 C 257.042969 85.832031 256.753906 83.121094 256.105469 80.445312 C 255.40625 77.035156 253.859375 74.066406 251.46875 71.539062 C 250.179688 70.277344 248.753906 69.195312 247.1875 68.296875 C 245.617188 67.402344 243.964844 66.714844 242.222656 66.246094 C 240.480469 65.773438 238.707031 65.527344 236.902344 65.511719 C 235.097656 65.492188 233.320312 65.703125 231.570312 66.144531 C 228.441406 66.671875 227.386719 68.03125 227.347656 71.277344 C 227.273438 77.464844 227.3125 83.425781 227.3125 89.5 Z M 381.425781 95.421875 L 381.425781 91.121094 L 408.9375 91.121094 L 408.9375 95.421875 L 404.453125 96.328125 C 402.269531 96.855469 401.628906 97.6875 402.304688 99.726562 C 404 104.707031 405.734375 109.609375 407.582031 114.515625 C 410.257812 121.644531 413.046875 128.738281 415.796875 135.871094 L 416.25 136.550781 C 417.082031 134.589844 417.910156 132.777344 418.585938 131.003906 C 421.476562 123.179688 424.328125 115.359375 427.144531 107.535156 C 428.011719 105.15625 428.613281 102.707031 429.253906 100.253906 C 429.894531 97.800781 428.199219 96.480469 425.484375 95.988281 C 424.769531 95.988281 424.054688 95.988281 423.300781 95.761719 C 422.546875 95.535156 421.152344 95.082031 421.453125 93.5 C 421.527344 92.644531 421.527344 91.789062 421.453125 90.933594 C 434.984375 90.707031 448.476562 91.347656 461.929688 88.78125 L 461.929688 140.472656 C 461.9375 141.738281 462.035156 142.996094 462.234375 144.246094 C 462.292969 144.804688 462.4375 145.335938 462.671875 145.84375 C 462.90625 146.351562 463.21875 146.808594 463.601562 147.214844 C 463.988281 147.621094 464.425781 147.953125 464.921875 148.214844 C 465.417969 148.472656 465.941406 148.648438 466.492188 148.738281 C 468.226562 149.113281 469.996094 149.339844 471.84375 149.640625 L 471.84375 153.414062 L 439.089844 153.414062 C 438.996094 152.371094 438.996094 151.328125 439.089844 150.285156 C 439.089844 149.90625 439.957031 149.527344 440.484375 149.378906 C 442.257812 148.886719 444.253906 148.546875 445.875 148.058594 C 447.496094 147.566406 448.4375 145.566406 448.703125 143.832031 C 448.984375 141.765625 449.097656 139.691406 449.042969 137.605469 L 449.042969 105.460938 C 448.972656 103.308594 448.773438 101.171875 448.4375 99.046875 C 448.324219 98.546875 448.128906 98.082031 447.855469 97.648438 C 447.582031 97.214844 447.246094 96.839844 446.84375 96.519531 C 446.445312 96.203125 446.003906 95.957031 445.519531 95.789062 C 445.039062 95.621094 444.539062 95.535156 444.027344 95.535156 C 439.617188 95.121094 437.847656 98.179688 436.492188 101.273438 C 430.421875 115.496094 424.503906 129.832031 418.585938 144.132812 C 417.230469 147.453125 415.949219 150.851562 414.820312 154.285156 C 414.777344 154.476562 414.703125 154.65625 414.59375 154.820312 C 414.488281 154.988281 414.351562 155.128906 414.191406 155.242188 C 414.03125 155.355469 413.855469 155.441406 413.664062 155.488281 C 413.472656 155.539062 413.28125 155.550781 413.085938 155.527344 C 412.507812 155.472656 411.929688 155.472656 411.351562 155.527344 C 410.445312 155.527344 410.03125 155.1875 409.769531 154.472656 C 407.167969 147.53125 404.640625 140.585938 401.964844 133.683594 C 399.289062 126.777344 396.878906 121.082031 394.429688 114.816406 C 392.695312 110.554688 390.960938 106.253906 389.113281 102.027344 C 388.847656 101.246094 388.492188 100.515625 388.039062 99.828125 C 387.585938 99.140625 387.054688 98.519531 386.445312 97.96875 C 385.835938 97.417969 385.164062 96.953125 384.4375 96.570312 C 383.707031 96.191406 382.941406 95.910156 382.140625 95.726562 C 381.886719 95.664062 381.648438 95.5625 381.425781 95.421875 Z M 630.179688 149.679688 L 630.179688 153.453125 L 598.257812 153.453125 C 598.179688 152.332031 598.179688 151.214844 598.257812 150.09375 C 598.257812 149.792969 599.046875 149.492188 599.539062 149.417969 C 601.160156 149.078125 602.816406 148.925781 604.398438 148.511719 C 604.960938 148.386719 605.484375 148.167969 605.964844 147.855469 C 606.449219 147.542969 606.863281 147.160156 607.210938 146.699219 C 607.554688 146.238281 607.808594 145.730469 607.976562 145.179688 C 608.140625 144.628906 608.203125 144.066406 608.167969 143.492188 C 608.167969 131.457031 608.394531 119.457031 608.46875 107.421875 C 608.46875 106.15625 608.367188 104.898438 608.167969 103.648438 C 608.105469 103.148438 607.96875 102.664062 607.761719 102.203125 C 607.550781 101.742188 607.28125 101.324219 606.941406 100.945312 C 606.605469 100.570312 606.222656 100.25 605.789062 99.992188 C 605.351562 99.730469 604.890625 99.542969 604.398438 99.421875 C 603.003906 99.007812 601.574219 98.707031 600.066406 98.367188 L 600.066406 95.195312 L 621.324219 89.3125 L 621.324219 100.101562 L 626.824219 96.328125 C 630.019531 93.777344 633.539062 91.800781 637.378906 90.40625 C 637.941406 90.21875 638.511719 90.0625 639.085938 89.9375 C 639.664062 89.808594 640.246094 89.710938 640.835938 89.640625 C 641.421875 89.574219 642.011719 89.535156 642.605469 89.527344 C 643.195312 89.519531 643.785156 89.542969 644.375 89.59375 C 644.964844 89.644531 645.550781 89.726562 646.128906 89.839844 C 646.710938 89.949219 647.285156 90.089844 647.851562 90.261719 C 648.417969 90.429688 648.972656 90.628906 649.519531 90.855469 C 650.066406 91.082031 650.601562 91.335938 651.121094 91.617188 C 651.640625 91.898438 652.148438 92.203125 652.636719 92.535156 C 653.125 92.867188 653.597656 93.226562 654.050781 93.605469 C 654.503906 93.984375 654.9375 94.386719 655.351562 94.8125 C 655.761719 95.238281 656.152344 95.679688 656.519531 96.144531 C 656.886719 96.609375 657.230469 97.089844 657.550781 97.589844 C 657.867188 98.089844 658.160156 98.601562 658.425781 99.132812 C 658.691406 99.660156 658.929688 100.203125 659.144531 100.753906 C 659.355469 101.308594 659.535156 101.871094 659.691406 102.441406 C 660.566406 105.792969 660.996094 109.203125 660.972656 112.667969 L 660.972656 143.113281 C 660.972656 147.191406 662.519531 148.851562 666.550781 149.417969 L 666.851562 149.417969 C 670.132812 150.058594 670.207031 150.132812 669.640625 153.792969 L 639.261719 153.792969 C 639.1875 152.722656 639.1875 151.65625 639.261719 150.585938 C 639.261719 150.207031 640.054688 149.867188 640.542969 149.71875 C 642.089844 149.304688 643.636719 149.039062 645.140625 148.546875 C 645.761719 148.367188 646.289062 148.035156 646.714844 147.550781 C 647.144531 147.070312 647.410156 146.507812 647.515625 145.871094 C 647.933594 143.964844 648.222656 142.039062 648.382812 140.097656 L 648.382812 111.382812 C 648.382812 109.664062 648.085938 108 647.496094 106.382812 C 646.90625 104.769531 646.058594 103.304688 644.953125 101.988281 C 643.402344 100.367188 641.515625 99.371094 639.300781 99.007812 C 637.527344 98.65625 635.746094 98.605469 633.957031 98.859375 C 632.167969 99.113281 630.46875 99.652344 628.859375 100.480469 C 626.480469 101.824219 624.179688 103.292969 621.964844 104.894531 C 621.683594 105.21875 621.558594 105.597656 621.585938 106.027344 L 621.585938 143.191406 C 621.585938 147.980469 622.867188 148.886719 628.332031 149.679688 Z M 319.878906 123.230469 C 319.761719 119.535156 320.25 115.921875 321.332031 112.386719 C 322.417969 108.851562 324.042969 105.585938 326.210938 102.59375 C 327.351562 100.960938 328.636719 99.453125 330.074219 98.074219 C 331.507812 96.691406 333.0625 95.460938 334.734375 94.386719 C 336.410156 93.308594 338.171875 92.402344 340.023438 91.667969 C 341.871094 90.9375 343.777344 90.390625 345.734375 90.027344 C 346.773438 89.816406 347.824219 89.65625 348.882812 89.554688 C 349.941406 89.449219 351.003906 89.398438 352.070312 89.40625 C 353.132812 89.414062 354.191406 89.476562 355.25 89.59375 C 356.308594 89.710938 357.355469 89.878906 358.394531 90.105469 C 359.433594 90.332031 360.460938 90.613281 361.472656 90.945312 C 362.480469 91.277344 363.472656 91.660156 364.441406 92.097656 C 365.414062 92.53125 366.359375 93.015625 367.28125 93.550781 C 368.199219 94.085938 369.089844 94.664062 369.949219 95.292969 C 370.8125 95.917969 371.636719 96.589844 372.425781 97.300781 C 373.21875 98.011719 373.96875 98.765625 374.683594 99.554688 C 375.394531 100.347656 376.066406 101.171875 376.691406 102.03125 C 377.320312 102.890625 377.898438 103.78125 378.433594 104.703125 C 378.96875 105.625 379.453125 106.570312 379.890625 107.542969 C 380.328125 108.511719 380.710938 109.503906 381.046875 110.515625 C 381.378906 111.527344 381.660156 112.550781 381.886719 113.59375 C 382.113281 114.632812 382.285156 115.683594 382.40625 116.742188 C 382.941406 120.464844 382.910156 124.183594 382.304688 127.898438 C 381.703125 131.613281 380.554688 135.152344 378.863281 138.511719 C 377.996094 140.289062 376.964844 141.960938 375.761719 143.527344 C 374.5625 145.09375 373.214844 146.527344 371.726562 147.824219 C 370.238281 149.121094 368.632812 150.253906 366.917969 151.226562 C 365.199219 152.203125 363.402344 152.992188 361.523438 153.605469 C 358.320312 154.761719 355.015625 155.390625 351.613281 155.492188 C 347 155.574219 342.574219 154.695312 338.34375 152.847656 C 336.28125 151.972656 334.34375 150.878906 332.527344 149.566406 C 330.710938 148.253906 329.0625 146.753906 327.585938 145.070312 C 326.105469 143.382812 324.835938 141.554688 323.769531 139.582031 C 322.703125 137.609375 321.871094 135.542969 321.273438 133.378906 C 320.4375 130.050781 319.832031 126.679688 319.460938 123.269531 Z M 368.160156 124.4375 C 368.269531 119.558594 367.679688 114.769531 366.386719 110.0625 C 365.847656 107.753906 364.992188 105.566406 363.820312 103.503906 C 362.644531 101.441406 361.203125 99.59375 359.488281 97.953125 C 359.152344 97.625 358.800781 97.320312 358.429688 97.035156 C 358.0625 96.746094 357.679688 96.480469 357.28125 96.234375 C 356.882812 95.988281 356.472656 95.765625 356.050781 95.5625 C 355.628906 95.359375 355.199219 95.183594 354.757812 95.027344 C 354.316406 94.871094 353.867188 94.742188 353.414062 94.632812 C 352.957031 94.527344 352.5 94.445312 352.035156 94.386719 C 351.570312 94.332031 351.105469 94.296875 350.636719 94.289062 C 350.171875 94.28125 349.703125 94.300781 349.238281 94.34375 C 348.773438 94.386719 348.3125 94.453125 347.851562 94.546875 C 347.394531 94.640625 346.941406 94.757812 346.496094 94.898438 C 346.050781 95.039062 345.613281 95.203125 345.1875 95.390625 C 344.757812 95.578125 344.339844 95.789062 343.9375 96.023438 C 343.53125 96.257812 343.140625 96.511719 342.761719 96.785156 C 342.382812 97.0625 342.019531 97.355469 341.675781 97.671875 C 341.328125 97.984375 341 98.316406 340.6875 98.667969 C 340.378906 99.015625 340.085938 99.382812 339.816406 99.761719 C 338.175781 101.964844 336.921875 104.367188 336.046875 106.96875 C 334.90625 110.941406 334.296875 114.996094 334.226562 119.128906 C 334.15625 123.261719 334.625 127.332031 335.632812 131.34375 C 336.097656 133.980469 336.910156 136.507812 338.070312 138.921875 C 339.226562 141.339844 340.6875 143.554688 342.453125 145.566406 C 343.035156 146.246094 343.675781 146.859375 344.378906 147.414062 C 345.082031 147.964844 345.832031 148.441406 346.628906 148.847656 C 347.421875 149.25 348.25 149.574219 349.109375 149.816406 C 349.96875 150.058594 350.84375 150.214844 351.734375 150.285156 C 352.625 150.355469 353.511719 150.335938 354.398438 150.234375 C 355.285156 150.128906 356.15625 149.9375 357.003906 149.664062 C 357.851562 149.386719 358.667969 149.03125 359.449219 148.597656 C 360.226562 148.164062 360.957031 147.65625 361.636719 147.078125 C 363.902344 144.84375 365.433594 142.191406 366.234375 139.117188 C 367.636719 134.324219 368.277344 129.429688 368.160156 124.4375 Z M 368.160156 124.4375 " fill-opacity="1" fill-rule="nonzero"/><path fill="#46963a" d="M 125.546875 175.222656 C 122.222656 174.65625 119.179688 173.398438 116.425781 171.449219 C 113.425781 169.3125 111.179688 166.558594 109.679688 163.1875 C 108.558594 160.910156 107.855469 158.507812 107.570312 155.980469 C 107.269531 146.398438 107.304688 136.777344 107.230469 127.191406 L 107.230469 119.34375 C 107.207031 119.082031 107.210938 118.820312 107.242188 118.5625 C 107.273438 118.300781 107.328125 118.046875 107.414062 117.796875 C 107.496094 117.546875 107.605469 117.308594 107.738281 117.082031 C 107.875 116.859375 108.027344 116.648438 108.207031 116.453125 C 108.382812 116.261719 108.578125 116.085938 108.792969 115.933594 C 109.007812 115.78125 109.234375 115.652344 109.472656 115.546875 C 109.714844 115.441406 109.964844 115.363281 110.21875 115.308594 C 110.476562 115.257812 110.738281 115.230469 111 115.230469 C 112.3125 115.070312 113.632812 114.980469 114.957031 114.96875 L 143.941406 114.96875 C 146.601562 114.914062 149.203125 115.277344 151.75 116.054688 C 154.292969 116.835938 156.652344 117.996094 158.828125 119.535156 C 161.082031 121.164062 162.960938 123.152344 164.457031 125.496094 C 165.953125 127.84375 166.96875 130.382812 167.496094 133.117188 L 125.546875 133.117188 Z M 125.472656 32.601562 L 125.472656 74.445312 L 167.421875 74.445312 C 166.734375 78.082031 165.226562 81.339844 162.898438 84.21875 C 161.253906 86.222656 159.324219 87.902344 157.117188 89.261719 C 154.910156 90.617188 152.539062 91.578125 150.007812 92.140625 C 147.960938 92.597656 145.886719 92.785156 143.789062 92.707031 L 111.675781 92.707031 C 111.378906 92.726562 111.082031 92.714844 110.785156 92.671875 C 110.488281 92.625 110.199219 92.550781 109.921875 92.445312 C 109.640625 92.339844 109.375 92.203125 109.125 92.039062 C 108.875 91.878906 108.640625 91.691406 108.429688 91.476562 C 108.21875 91.265625 108.035156 91.03125 107.875 90.777344 C 107.714844 90.527344 107.582031 90.257812 107.476562 89.976562 C 107.375 89.695312 107.300781 89.40625 107.257812 89.109375 C 107.21875 88.8125 107.207031 88.515625 107.230469 88.21875 L 107.230469 55.769531 C 107.183594 54.773438 107.199219 53.777344 107.285156 52.785156 C 107.367188 51.792969 107.515625 50.808594 107.730469 49.832031 C 107.945312 48.859375 108.21875 47.90625 108.558594 46.96875 C 108.898438 46.03125 109.300781 45.121094 109.757812 44.234375 C 110.21875 43.351562 110.734375 42.5 111.308594 41.683594 C 111.878906 40.867188 112.503906 40.09375 113.175781 39.359375 C 113.851562 38.625 114.570312 37.941406 115.335938 37.300781 C 116.101562 36.664062 116.902344 36.078125 117.746094 35.542969 C 120.109375 34.265625 122.546875 33.144531 125.058594 32.1875 Z M 125.472656 32.601562 " fill-opacity="1" fill-rule="nonzero"/></svg>